%TF.GenerationSoftware,KiCad,Pcbnew,(5.1.9-0-10_14)*%
%TF.CreationDate,2021-02-28T00:18:14+08:00*%
%TF.ProjectId,panelized,70616e65-6c69-47a6-9564-2e6b69636164,rev?*%
%TF.SameCoordinates,Original*%
%TF.FileFunction,Legend,Top*%
%TF.FilePolarity,Positive*%
%FSLAX46Y46*%
G04 Gerber Fmt 4.6, Leading zero omitted, Abs format (unit mm)*
G04 Created by KiCad (PCBNEW (5.1.9-0-10_14)) date 2021-02-28 00:18:14*
%MOMM*%
%LPD*%
G01*
G04 APERTURE LIST*
%ADD10C,0.150000*%
%ADD11C,0.120000*%
G04 APERTURE END LIST*
D10*
X91781857Y-76303142D02*
X91734238Y-76350761D01*
X91591380Y-76398380D01*
X91496142Y-76398380D01*
X91353285Y-76350761D01*
X91258047Y-76255523D01*
X91210428Y-76160285D01*
X91162809Y-75969809D01*
X91162809Y-75826952D01*
X91210428Y-75636476D01*
X91258047Y-75541238D01*
X91353285Y-75446000D01*
X91496142Y-75398380D01*
X91591380Y-75398380D01*
X91734238Y-75446000D01*
X91781857Y-75493619D01*
X92162809Y-76112666D02*
X92639000Y-76112666D01*
X92067571Y-76398380D02*
X92400904Y-75398380D01*
X92734238Y-76398380D01*
X93067571Y-75398380D02*
X93067571Y-76207904D01*
X93115190Y-76303142D01*
X93162809Y-76350761D01*
X93258047Y-76398380D01*
X93448523Y-76398380D01*
X93543761Y-76350761D01*
X93591380Y-76303142D01*
X93639000Y-76207904D01*
X93639000Y-75398380D01*
X93972333Y-75398380D02*
X94543761Y-75398380D01*
X94258047Y-76398380D02*
X94258047Y-75398380D01*
X94877095Y-76398380D02*
X94877095Y-75398380D01*
X95543761Y-75398380D02*
X95734238Y-75398380D01*
X95829476Y-75446000D01*
X95924714Y-75541238D01*
X95972333Y-75731714D01*
X95972333Y-76065047D01*
X95924714Y-76255523D01*
X95829476Y-76350761D01*
X95734238Y-76398380D01*
X95543761Y-76398380D01*
X95448523Y-76350761D01*
X95353285Y-76255523D01*
X95305666Y-76065047D01*
X95305666Y-75731714D01*
X95353285Y-75541238D01*
X95448523Y-75446000D01*
X95543761Y-75398380D01*
X96400904Y-76398380D02*
X96400904Y-75398380D01*
X96972333Y-76398380D01*
X96972333Y-75398380D01*
X97448523Y-76303142D02*
X97496142Y-76350761D01*
X97448523Y-76398380D01*
X97400904Y-76350761D01*
X97448523Y-76303142D01*
X97448523Y-76398380D01*
X97448523Y-75779333D02*
X97496142Y-75826952D01*
X97448523Y-75874571D01*
X97400904Y-75826952D01*
X97448523Y-75779333D01*
X97448523Y-75874571D01*
X98686619Y-76398380D02*
X98686619Y-75398380D01*
X98686619Y-75874571D02*
X99258047Y-75874571D01*
X99258047Y-76398380D02*
X99258047Y-75398380D01*
X99924714Y-75398380D02*
X100115190Y-75398380D01*
X100210428Y-75446000D01*
X100305666Y-75541238D01*
X100353285Y-75731714D01*
X100353285Y-76065047D01*
X100305666Y-76255523D01*
X100210428Y-76350761D01*
X100115190Y-76398380D01*
X99924714Y-76398380D01*
X99829476Y-76350761D01*
X99734238Y-76255523D01*
X99686619Y-76065047D01*
X99686619Y-75731714D01*
X99734238Y-75541238D01*
X99829476Y-75446000D01*
X99924714Y-75398380D01*
X100639000Y-75398380D02*
X101210428Y-75398380D01*
X100924714Y-76398380D02*
X100924714Y-75398380D01*
D11*
X88011000Y-79502000D02*
X88011000Y-81534000D01*
X104012999Y-79502000D02*
X88011000Y-79502000D01*
D10*
X143851857Y-76303142D02*
X143804238Y-76350761D01*
X143661380Y-76398380D01*
X143566142Y-76398380D01*
X143423285Y-76350761D01*
X143328047Y-76255523D01*
X143280428Y-76160285D01*
X143232809Y-75969809D01*
X143232809Y-75826952D01*
X143280428Y-75636476D01*
X143328047Y-75541238D01*
X143423285Y-75446000D01*
X143566142Y-75398380D01*
X143661380Y-75398380D01*
X143804238Y-75446000D01*
X143851857Y-75493619D01*
X144232809Y-76112666D02*
X144709000Y-76112666D01*
X144137571Y-76398380D02*
X144470904Y-75398380D01*
X144804238Y-76398380D01*
X145137571Y-75398380D02*
X145137571Y-76207904D01*
X145185190Y-76303142D01*
X145232809Y-76350761D01*
X145328047Y-76398380D01*
X145518523Y-76398380D01*
X145613761Y-76350761D01*
X145661380Y-76303142D01*
X145709000Y-76207904D01*
X145709000Y-75398380D01*
X146042333Y-75398380D02*
X146613761Y-75398380D01*
X146328047Y-76398380D02*
X146328047Y-75398380D01*
X146947095Y-76398380D02*
X146947095Y-75398380D01*
X147613761Y-75398380D02*
X147804238Y-75398380D01*
X147899476Y-75446000D01*
X147994714Y-75541238D01*
X148042333Y-75731714D01*
X148042333Y-76065047D01*
X147994714Y-76255523D01*
X147899476Y-76350761D01*
X147804238Y-76398380D01*
X147613761Y-76398380D01*
X147518523Y-76350761D01*
X147423285Y-76255523D01*
X147375666Y-76065047D01*
X147375666Y-75731714D01*
X147423285Y-75541238D01*
X147518523Y-75446000D01*
X147613761Y-75398380D01*
X148470904Y-76398380D02*
X148470904Y-75398380D01*
X149042333Y-76398380D01*
X149042333Y-75398380D01*
X149518523Y-76303142D02*
X149566142Y-76350761D01*
X149518523Y-76398380D01*
X149470904Y-76350761D01*
X149518523Y-76303142D01*
X149518523Y-76398380D01*
X149518523Y-75779333D02*
X149566142Y-75826952D01*
X149518523Y-75874571D01*
X149470904Y-75826952D01*
X149518523Y-75779333D01*
X149518523Y-75874571D01*
X150756619Y-76398380D02*
X150756619Y-75398380D01*
X150756619Y-75874571D02*
X151328047Y-75874571D01*
X151328047Y-76398380D02*
X151328047Y-75398380D01*
X151994714Y-75398380D02*
X152185190Y-75398380D01*
X152280428Y-75446000D01*
X152375666Y-75541238D01*
X152423285Y-75731714D01*
X152423285Y-76065047D01*
X152375666Y-76255523D01*
X152280428Y-76350761D01*
X152185190Y-76398380D01*
X151994714Y-76398380D01*
X151899476Y-76350761D01*
X151804238Y-76255523D01*
X151756619Y-76065047D01*
X151756619Y-75731714D01*
X151804238Y-75541238D01*
X151899476Y-75446000D01*
X151994714Y-75398380D01*
X152709000Y-75398380D02*
X153280428Y-75398380D01*
X152994714Y-76398380D02*
X152994714Y-75398380D01*
D11*
X140081000Y-79502000D02*
X140081000Y-81534000D01*
X156082999Y-79502000D02*
X140081000Y-79502000D01*
%TO.C,POWER_OUT1*%
X129690000Y-108880000D02*
X129690000Y-119380000D01*
X126690000Y-119380000D02*
X126690000Y-108880000D01*
X124690000Y-108880000D02*
X124690000Y-119380000D01*
X121690000Y-119380000D02*
X121690000Y-108880000D01*
%TO.C,POWER_IN1*%
X104370000Y-108880000D02*
X104370000Y-119380000D01*
X101370000Y-119380000D02*
X101370000Y-108880000D01*
X99370000Y-108880000D02*
X99370000Y-119380000D01*
X96370000Y-119380000D02*
X96370000Y-108880000D01*
%TO.C,C4*%
X110228748Y-85190000D02*
X110751252Y-85190000D01*
X110228748Y-83720000D02*
X110751252Y-83720000D01*
%TO.C,C3*%
X105014752Y-85117000D02*
X104492248Y-85117000D01*
X105014752Y-86587000D02*
X104492248Y-86587000D01*
%TO.C,C2*%
X104868752Y-98579000D02*
X104346248Y-98579000D01*
X104868752Y-100049000D02*
X104346248Y-100049000D01*
%TO.C,C1*%
X119118748Y-92937000D02*
X119641252Y-92937000D01*
X119118748Y-91467000D02*
X119641252Y-91467000D01*
%TO.C,U2*%
X105632000Y-97812000D02*
X107132000Y-97812000D01*
X107132000Y-97812000D02*
X107132000Y-96862000D01*
X107132000Y-96862000D02*
X112257000Y-96862000D01*
X105632000Y-87412000D02*
X107132000Y-87412000D01*
X107132000Y-87412000D02*
X107132000Y-88362000D01*
X107132000Y-88362000D02*
X108232000Y-88362000D01*
D10*
%TO.C,U1*%
X113554000Y-81127000D02*
X115554000Y-81127000D01*
X114554000Y-77877000D02*
X115554000Y-77877000D01*
D11*
%TO.C,R5*%
X114375000Y-90431252D02*
X114375000Y-89908748D01*
X112955000Y-90431252D02*
X112955000Y-89908748D01*
%TO.C,R4*%
X110751252Y-75617000D02*
X110228748Y-75617000D01*
X110751252Y-77037000D02*
X110228748Y-77037000D01*
%TO.C,R3*%
X110751252Y-77649000D02*
X110228748Y-77649000D01*
X110751252Y-79069000D02*
X110228748Y-79069000D01*
%TO.C,R2*%
X110760252Y-79672000D02*
X110237748Y-79672000D01*
X110760252Y-81092000D02*
X110237748Y-81092000D01*
%TO.C,R1*%
X110760252Y-81713000D02*
X110237748Y-81713000D01*
X110760252Y-83133000D02*
X110237748Y-83133000D01*
%TO.C,Q2*%
X124033000Y-91080000D02*
X125533000Y-91080000D01*
X125533000Y-91080000D02*
X125533000Y-90810000D01*
X125533000Y-90810000D02*
X128363000Y-90810000D01*
X124033000Y-84180000D02*
X125533000Y-84180000D01*
X125533000Y-84180000D02*
X125533000Y-84450000D01*
X125533000Y-84450000D02*
X126633000Y-84450000D01*
%TO.C,Q1*%
X124033000Y-83079000D02*
X125533000Y-83079000D01*
X125533000Y-83079000D02*
X125533000Y-82809000D01*
X125533000Y-82809000D02*
X128363000Y-82809000D01*
X124033000Y-76179000D02*
X125533000Y-76179000D01*
X125533000Y-76179000D02*
X125533000Y-76449000D01*
X125533000Y-76449000D02*
X126633000Y-76449000D01*
%TO.C,POWER_OUT1*%
X173760000Y-119380000D02*
X173760000Y-108880000D01*
X176760000Y-108880000D02*
X176760000Y-119380000D01*
X178760000Y-119380000D02*
X178760000Y-108880000D01*
X181760000Y-108880000D02*
X181760000Y-119380000D01*
%TO.C,POWER_IN1*%
X148440000Y-119380000D02*
X148440000Y-108880000D01*
X151440000Y-108880000D02*
X151440000Y-119380000D01*
X153440000Y-119380000D02*
X153440000Y-108880000D01*
X156440000Y-108880000D02*
X156440000Y-119380000D01*
%TO.C,C4*%
X162298748Y-83720000D02*
X162821252Y-83720000D01*
X162298748Y-85190000D02*
X162821252Y-85190000D01*
%TO.C,C3*%
X157084752Y-86587000D02*
X156562248Y-86587000D01*
X157084752Y-85117000D02*
X156562248Y-85117000D01*
%TO.C,C2*%
X156938752Y-100049000D02*
X156416248Y-100049000D01*
X156938752Y-98579000D02*
X156416248Y-98579000D01*
%TO.C,C1*%
X171188748Y-91467000D02*
X171711252Y-91467000D01*
X171188748Y-92937000D02*
X171711252Y-92937000D01*
%TO.C,U2*%
X159202000Y-88362000D02*
X160302000Y-88362000D01*
X159202000Y-87412000D02*
X159202000Y-88362000D01*
X157702000Y-87412000D02*
X159202000Y-87412000D01*
X159202000Y-96862000D02*
X164327000Y-96862000D01*
X159202000Y-97812000D02*
X159202000Y-96862000D01*
X157702000Y-97812000D02*
X159202000Y-97812000D01*
D10*
%TO.C,U1*%
X166624000Y-77877000D02*
X167624000Y-77877000D01*
X165624000Y-81127000D02*
X167624000Y-81127000D01*
D11*
%TO.C,R5*%
X165025000Y-90431252D02*
X165025000Y-89908748D01*
X166445000Y-90431252D02*
X166445000Y-89908748D01*
%TO.C,R4*%
X162821252Y-77037000D02*
X162298748Y-77037000D01*
X162821252Y-75617000D02*
X162298748Y-75617000D01*
%TO.C,R3*%
X162821252Y-79069000D02*
X162298748Y-79069000D01*
X162821252Y-77649000D02*
X162298748Y-77649000D01*
%TO.C,R2*%
X162830252Y-81092000D02*
X162307748Y-81092000D01*
X162830252Y-79672000D02*
X162307748Y-79672000D01*
%TO.C,R1*%
X162830252Y-83133000D02*
X162307748Y-83133000D01*
X162830252Y-81713000D02*
X162307748Y-81713000D01*
%TO.C,Q2*%
X177603000Y-84450000D02*
X178703000Y-84450000D01*
X177603000Y-84180000D02*
X177603000Y-84450000D01*
X176103000Y-84180000D02*
X177603000Y-84180000D01*
X177603000Y-90810000D02*
X180433000Y-90810000D01*
X177603000Y-91080000D02*
X177603000Y-90810000D01*
X176103000Y-91080000D02*
X177603000Y-91080000D01*
%TO.C,Q1*%
X177603000Y-76449000D02*
X178703000Y-76449000D01*
X177603000Y-76179000D02*
X177603000Y-76449000D01*
X176103000Y-76179000D02*
X177603000Y-76179000D01*
X177603000Y-82809000D02*
X180433000Y-82809000D01*
X177603000Y-83079000D02*
X177603000Y-82809000D01*
X176103000Y-83079000D02*
X177603000Y-83079000D01*
%TO.C,H4*%
D10*
X129041904Y-129595599D02*
X129749011Y-128888492D01*
X129412293Y-129225210D02*
X129816354Y-129629271D01*
X129445965Y-129999660D02*
X130153072Y-129292553D01*
X130557133Y-130168019D02*
X130085728Y-130639423D01*
X130658148Y-129730286D02*
X129984713Y-130067004D01*
X130422446Y-130504736D01*
%TO.C,H3*%
X93400599Y-130673095D02*
X92693492Y-129965988D01*
X93030210Y-130302706D02*
X93434271Y-129898645D01*
X93804660Y-130269034D02*
X93097553Y-129561927D01*
X93366927Y-129292553D02*
X93804660Y-128854821D01*
X93838332Y-129359897D01*
X93939347Y-129258882D01*
X94040362Y-129225210D01*
X94107706Y-129225210D01*
X94208721Y-129258882D01*
X94377080Y-129427240D01*
X94410752Y-129528256D01*
X94410752Y-129595599D01*
X94377080Y-129696614D01*
X94175049Y-129898645D01*
X94074034Y-129932317D01*
X94006691Y-129932317D01*
%TO.C,H2*%
X125603095Y-70222380D02*
X125603095Y-69222380D01*
X125603095Y-69698571D02*
X126174523Y-69698571D01*
X126174523Y-70222380D02*
X126174523Y-69222380D01*
X126603095Y-69317619D02*
X126650714Y-69270000D01*
X126745952Y-69222380D01*
X126984047Y-69222380D01*
X127079285Y-69270000D01*
X127126904Y-69317619D01*
X127174523Y-69412857D01*
X127174523Y-69508095D01*
X127126904Y-69650952D01*
X126555476Y-70222380D01*
X127174523Y-70222380D01*
%TO.C,H1*%
X96393095Y-70222380D02*
X96393095Y-69222380D01*
X96393095Y-69698571D02*
X96964523Y-69698571D01*
X96964523Y-70222380D02*
X96964523Y-69222380D01*
X97964523Y-70222380D02*
X97393095Y-70222380D01*
X97678809Y-70222380D02*
X97678809Y-69222380D01*
X97583571Y-69365238D01*
X97488333Y-69460476D01*
X97393095Y-69508095D01*
%TO.C,C4*%
X113768142Y-84621666D02*
X113815761Y-84669285D01*
X113863380Y-84812142D01*
X113863380Y-84907380D01*
X113815761Y-85050238D01*
X113720523Y-85145476D01*
X113625285Y-85193095D01*
X113434809Y-85240714D01*
X113291952Y-85240714D01*
X113101476Y-85193095D01*
X113006238Y-85145476D01*
X112911000Y-85050238D01*
X112863380Y-84907380D01*
X112863380Y-84812142D01*
X112911000Y-84669285D01*
X112958619Y-84621666D01*
X113196714Y-83764523D02*
X113863380Y-83764523D01*
X112815761Y-84002619D02*
X113530047Y-84240714D01*
X113530047Y-83621666D01*
%TO.C,C3*%
X107904642Y-86018666D02*
X107952261Y-86066285D01*
X107999880Y-86209142D01*
X107999880Y-86304380D01*
X107952261Y-86447238D01*
X107857023Y-86542476D01*
X107761785Y-86590095D01*
X107571309Y-86637714D01*
X107428452Y-86637714D01*
X107237976Y-86590095D01*
X107142738Y-86542476D01*
X107047500Y-86447238D01*
X106999880Y-86304380D01*
X106999880Y-86209142D01*
X107047500Y-86066285D01*
X107095119Y-86018666D01*
X106999880Y-85685333D02*
X106999880Y-85066285D01*
X107380833Y-85399619D01*
X107380833Y-85256761D01*
X107428452Y-85161523D01*
X107476071Y-85113904D01*
X107571309Y-85066285D01*
X107809404Y-85066285D01*
X107904642Y-85113904D01*
X107952261Y-85161523D01*
X107999880Y-85256761D01*
X107999880Y-85542476D01*
X107952261Y-85637714D01*
X107904642Y-85685333D01*
%TO.C,C2*%
X107672142Y-99734666D02*
X107719761Y-99782285D01*
X107767380Y-99925142D01*
X107767380Y-100020380D01*
X107719761Y-100163238D01*
X107624523Y-100258476D01*
X107529285Y-100306095D01*
X107338809Y-100353714D01*
X107195952Y-100353714D01*
X107005476Y-100306095D01*
X106910238Y-100258476D01*
X106815000Y-100163238D01*
X106767380Y-100020380D01*
X106767380Y-99925142D01*
X106815000Y-99782285D01*
X106862619Y-99734666D01*
X106862619Y-99353714D02*
X106815000Y-99306095D01*
X106767380Y-99210857D01*
X106767380Y-98972761D01*
X106815000Y-98877523D01*
X106862619Y-98829904D01*
X106957857Y-98782285D01*
X107053095Y-98782285D01*
X107195952Y-98829904D01*
X107767380Y-99401333D01*
X107767380Y-98782285D01*
%TO.C,C1*%
X122658142Y-92495666D02*
X122705761Y-92543285D01*
X122753380Y-92686142D01*
X122753380Y-92781380D01*
X122705761Y-92924238D01*
X122610523Y-93019476D01*
X122515285Y-93067095D01*
X122324809Y-93114714D01*
X122181952Y-93114714D01*
X121991476Y-93067095D01*
X121896238Y-93019476D01*
X121801000Y-92924238D01*
X121753380Y-92781380D01*
X121753380Y-92686142D01*
X121801000Y-92543285D01*
X121848619Y-92495666D01*
X122753380Y-91543285D02*
X122753380Y-92114714D01*
X122753380Y-91829000D02*
X121753380Y-91829000D01*
X121896238Y-91924238D01*
X121991476Y-92019476D01*
X122039095Y-92114714D01*
%TO.C,U2*%
X107696095Y-97496380D02*
X107696095Y-98305904D01*
X107743714Y-98401142D01*
X107791333Y-98448761D01*
X107886571Y-98496380D01*
X108077047Y-98496380D01*
X108172285Y-98448761D01*
X108219904Y-98401142D01*
X108267523Y-98305904D01*
X108267523Y-97496380D01*
X108696095Y-97591619D02*
X108743714Y-97544000D01*
X108838952Y-97496380D01*
X109077047Y-97496380D01*
X109172285Y-97544000D01*
X109219904Y-97591619D01*
X109267523Y-97686857D01*
X109267523Y-97782095D01*
X109219904Y-97924952D01*
X108648476Y-98496380D01*
X109267523Y-98496380D01*
%TO.C,U1*%
X113792095Y-81494380D02*
X113792095Y-82303904D01*
X113839714Y-82399142D01*
X113887333Y-82446761D01*
X113982571Y-82494380D01*
X114173047Y-82494380D01*
X114268285Y-82446761D01*
X114315904Y-82399142D01*
X114363523Y-82303904D01*
X114363523Y-81494380D01*
X115363523Y-82494380D02*
X114792095Y-82494380D01*
X115077809Y-82494380D02*
X115077809Y-81494380D01*
X114982571Y-81637238D01*
X114887333Y-81732476D01*
X114792095Y-81780095D01*
%TO.C,R5*%
X113498333Y-93289380D02*
X113165000Y-92813190D01*
X112926904Y-93289380D02*
X112926904Y-92289380D01*
X113307857Y-92289380D01*
X113403095Y-92337000D01*
X113450714Y-92384619D01*
X113498333Y-92479857D01*
X113498333Y-92622714D01*
X113450714Y-92717952D01*
X113403095Y-92765571D01*
X113307857Y-92813190D01*
X112926904Y-92813190D01*
X114403095Y-92289380D02*
X113926904Y-92289380D01*
X113879285Y-92765571D01*
X113926904Y-92717952D01*
X114022142Y-92670333D01*
X114260238Y-92670333D01*
X114355476Y-92717952D01*
X114403095Y-92765571D01*
X114450714Y-92860809D01*
X114450714Y-93098904D01*
X114403095Y-93194142D01*
X114355476Y-93241761D01*
X114260238Y-93289380D01*
X114022142Y-93289380D01*
X113926904Y-93241761D01*
X113879285Y-93194142D01*
%TO.C,R4*%
X110196333Y-75128380D02*
X109863000Y-74652190D01*
X109624904Y-75128380D02*
X109624904Y-74128380D01*
X110005857Y-74128380D01*
X110101095Y-74176000D01*
X110148714Y-74223619D01*
X110196333Y-74318857D01*
X110196333Y-74461714D01*
X110148714Y-74556952D01*
X110101095Y-74604571D01*
X110005857Y-74652190D01*
X109624904Y-74652190D01*
X111053476Y-74461714D02*
X111053476Y-75128380D01*
X110815380Y-74080761D02*
X110577285Y-74795047D01*
X111196333Y-74795047D01*
%TO.C,R3*%
X108012380Y-78525666D02*
X107536190Y-78859000D01*
X108012380Y-79097095D02*
X107012380Y-79097095D01*
X107012380Y-78716142D01*
X107060000Y-78620904D01*
X107107619Y-78573285D01*
X107202857Y-78525666D01*
X107345714Y-78525666D01*
X107440952Y-78573285D01*
X107488571Y-78620904D01*
X107536190Y-78716142D01*
X107536190Y-79097095D01*
X107012380Y-78192333D02*
X107012380Y-77573285D01*
X107393333Y-77906619D01*
X107393333Y-77763761D01*
X107440952Y-77668523D01*
X107488571Y-77620904D01*
X107583809Y-77573285D01*
X107821904Y-77573285D01*
X107917142Y-77620904D01*
X107964761Y-77668523D01*
X108012380Y-77763761D01*
X108012380Y-78049476D01*
X107964761Y-78144714D01*
X107917142Y-78192333D01*
%TO.C,R2*%
X108021380Y-80557666D02*
X107545190Y-80891000D01*
X108021380Y-81129095D02*
X107021380Y-81129095D01*
X107021380Y-80748142D01*
X107069000Y-80652904D01*
X107116619Y-80605285D01*
X107211857Y-80557666D01*
X107354714Y-80557666D01*
X107449952Y-80605285D01*
X107497571Y-80652904D01*
X107545190Y-80748142D01*
X107545190Y-81129095D01*
X107116619Y-80176714D02*
X107069000Y-80129095D01*
X107021380Y-80033857D01*
X107021380Y-79795761D01*
X107069000Y-79700523D01*
X107116619Y-79652904D01*
X107211857Y-79605285D01*
X107307095Y-79605285D01*
X107449952Y-79652904D01*
X108021380Y-80224333D01*
X108021380Y-79605285D01*
%TO.C,R1*%
X108021380Y-82589666D02*
X107545190Y-82923000D01*
X108021380Y-83161095D02*
X107021380Y-83161095D01*
X107021380Y-82780142D01*
X107069000Y-82684904D01*
X107116619Y-82637285D01*
X107211857Y-82589666D01*
X107354714Y-82589666D01*
X107449952Y-82637285D01*
X107497571Y-82684904D01*
X107545190Y-82780142D01*
X107545190Y-83161095D01*
X108021380Y-81637285D02*
X108021380Y-82208714D01*
X108021380Y-81923000D02*
X107021380Y-81923000D01*
X107164238Y-82018238D01*
X107259476Y-82113476D01*
X107307095Y-82208714D01*
%TO.C,Q2*%
X125955619Y-87725238D02*
X125908000Y-87820476D01*
X125812761Y-87915714D01*
X125669904Y-88058571D01*
X125622285Y-88153809D01*
X125622285Y-88249047D01*
X125860380Y-88201428D02*
X125812761Y-88296666D01*
X125717523Y-88391904D01*
X125527047Y-88439523D01*
X125193714Y-88439523D01*
X125003238Y-88391904D01*
X124908000Y-88296666D01*
X124860380Y-88201428D01*
X124860380Y-88010952D01*
X124908000Y-87915714D01*
X125003238Y-87820476D01*
X125193714Y-87772857D01*
X125527047Y-87772857D01*
X125717523Y-87820476D01*
X125812761Y-87915714D01*
X125860380Y-88010952D01*
X125860380Y-88201428D01*
X124955619Y-87391904D02*
X124908000Y-87344285D01*
X124860380Y-87249047D01*
X124860380Y-87010952D01*
X124908000Y-86915714D01*
X124955619Y-86868095D01*
X125050857Y-86820476D01*
X125146095Y-86820476D01*
X125288952Y-86868095D01*
X125860380Y-87439523D01*
X125860380Y-86820476D01*
%TO.C,Q1*%
X125725619Y-79724238D02*
X125678000Y-79819476D01*
X125582761Y-79914714D01*
X125439904Y-80057571D01*
X125392285Y-80152809D01*
X125392285Y-80248047D01*
X125630380Y-80200428D02*
X125582761Y-80295666D01*
X125487523Y-80390904D01*
X125297047Y-80438523D01*
X124963714Y-80438523D01*
X124773238Y-80390904D01*
X124678000Y-80295666D01*
X124630380Y-80200428D01*
X124630380Y-80009952D01*
X124678000Y-79914714D01*
X124773238Y-79819476D01*
X124963714Y-79771857D01*
X125297047Y-79771857D01*
X125487523Y-79819476D01*
X125582761Y-79914714D01*
X125630380Y-80009952D01*
X125630380Y-80200428D01*
X125630380Y-78819476D02*
X125630380Y-79390904D01*
X125630380Y-79105190D02*
X124630380Y-79105190D01*
X124773238Y-79200428D01*
X124868476Y-79295666D01*
X124916095Y-79390904D01*
%TO.C,H4*%
X181111904Y-129595599D02*
X181819011Y-128888492D01*
X181482293Y-129225210D02*
X181886354Y-129629271D01*
X181515965Y-129999660D02*
X182223072Y-129292553D01*
X182627133Y-130168019D02*
X182155728Y-130639423D01*
X182728148Y-129730286D02*
X182054713Y-130067004D01*
X182492446Y-130504736D01*
%TO.C,H3*%
X145470599Y-130673095D02*
X144763492Y-129965988D01*
X145100210Y-130302706D02*
X145504271Y-129898645D01*
X145874660Y-130269034D02*
X145167553Y-129561927D01*
X145436927Y-129292553D02*
X145874660Y-128854821D01*
X145908332Y-129359897D01*
X146009347Y-129258882D01*
X146110362Y-129225210D01*
X146177706Y-129225210D01*
X146278721Y-129258882D01*
X146447080Y-129427240D01*
X146480752Y-129528256D01*
X146480752Y-129595599D01*
X146447080Y-129696614D01*
X146245049Y-129898645D01*
X146144034Y-129932317D01*
X146076691Y-129932317D01*
%TO.C,H2*%
X177673095Y-70222380D02*
X177673095Y-69222380D01*
X177673095Y-69698571D02*
X178244523Y-69698571D01*
X178244523Y-70222380D02*
X178244523Y-69222380D01*
X178673095Y-69317619D02*
X178720714Y-69270000D01*
X178815952Y-69222380D01*
X179054047Y-69222380D01*
X179149285Y-69270000D01*
X179196904Y-69317619D01*
X179244523Y-69412857D01*
X179244523Y-69508095D01*
X179196904Y-69650952D01*
X178625476Y-70222380D01*
X179244523Y-70222380D01*
%TO.C,H1*%
X148463095Y-70222380D02*
X148463095Y-69222380D01*
X148463095Y-69698571D02*
X149034523Y-69698571D01*
X149034523Y-70222380D02*
X149034523Y-69222380D01*
X150034523Y-70222380D02*
X149463095Y-70222380D01*
X149748809Y-70222380D02*
X149748809Y-69222380D01*
X149653571Y-69365238D01*
X149558333Y-69460476D01*
X149463095Y-69508095D01*
%TO.C,C4*%
X165838142Y-84621666D02*
X165885761Y-84669285D01*
X165933380Y-84812142D01*
X165933380Y-84907380D01*
X165885761Y-85050238D01*
X165790523Y-85145476D01*
X165695285Y-85193095D01*
X165504809Y-85240714D01*
X165361952Y-85240714D01*
X165171476Y-85193095D01*
X165076238Y-85145476D01*
X164981000Y-85050238D01*
X164933380Y-84907380D01*
X164933380Y-84812142D01*
X164981000Y-84669285D01*
X165028619Y-84621666D01*
X165266714Y-83764523D02*
X165933380Y-83764523D01*
X164885761Y-84002619D02*
X165600047Y-84240714D01*
X165600047Y-83621666D01*
%TO.C,C3*%
X159974642Y-86018666D02*
X160022261Y-86066285D01*
X160069880Y-86209142D01*
X160069880Y-86304380D01*
X160022261Y-86447238D01*
X159927023Y-86542476D01*
X159831785Y-86590095D01*
X159641309Y-86637714D01*
X159498452Y-86637714D01*
X159307976Y-86590095D01*
X159212738Y-86542476D01*
X159117500Y-86447238D01*
X159069880Y-86304380D01*
X159069880Y-86209142D01*
X159117500Y-86066285D01*
X159165119Y-86018666D01*
X159069880Y-85685333D02*
X159069880Y-85066285D01*
X159450833Y-85399619D01*
X159450833Y-85256761D01*
X159498452Y-85161523D01*
X159546071Y-85113904D01*
X159641309Y-85066285D01*
X159879404Y-85066285D01*
X159974642Y-85113904D01*
X160022261Y-85161523D01*
X160069880Y-85256761D01*
X160069880Y-85542476D01*
X160022261Y-85637714D01*
X159974642Y-85685333D01*
%TO.C,C2*%
X159742142Y-99734666D02*
X159789761Y-99782285D01*
X159837380Y-99925142D01*
X159837380Y-100020380D01*
X159789761Y-100163238D01*
X159694523Y-100258476D01*
X159599285Y-100306095D01*
X159408809Y-100353714D01*
X159265952Y-100353714D01*
X159075476Y-100306095D01*
X158980238Y-100258476D01*
X158885000Y-100163238D01*
X158837380Y-100020380D01*
X158837380Y-99925142D01*
X158885000Y-99782285D01*
X158932619Y-99734666D01*
X158932619Y-99353714D02*
X158885000Y-99306095D01*
X158837380Y-99210857D01*
X158837380Y-98972761D01*
X158885000Y-98877523D01*
X158932619Y-98829904D01*
X159027857Y-98782285D01*
X159123095Y-98782285D01*
X159265952Y-98829904D01*
X159837380Y-99401333D01*
X159837380Y-98782285D01*
%TO.C,C1*%
X174728142Y-92495666D02*
X174775761Y-92543285D01*
X174823380Y-92686142D01*
X174823380Y-92781380D01*
X174775761Y-92924238D01*
X174680523Y-93019476D01*
X174585285Y-93067095D01*
X174394809Y-93114714D01*
X174251952Y-93114714D01*
X174061476Y-93067095D01*
X173966238Y-93019476D01*
X173871000Y-92924238D01*
X173823380Y-92781380D01*
X173823380Y-92686142D01*
X173871000Y-92543285D01*
X173918619Y-92495666D01*
X174823380Y-91543285D02*
X174823380Y-92114714D01*
X174823380Y-91829000D02*
X173823380Y-91829000D01*
X173966238Y-91924238D01*
X174061476Y-92019476D01*
X174109095Y-92114714D01*
%TO.C,U2*%
X159766095Y-97496380D02*
X159766095Y-98305904D01*
X159813714Y-98401142D01*
X159861333Y-98448761D01*
X159956571Y-98496380D01*
X160147047Y-98496380D01*
X160242285Y-98448761D01*
X160289904Y-98401142D01*
X160337523Y-98305904D01*
X160337523Y-97496380D01*
X160766095Y-97591619D02*
X160813714Y-97544000D01*
X160908952Y-97496380D01*
X161147047Y-97496380D01*
X161242285Y-97544000D01*
X161289904Y-97591619D01*
X161337523Y-97686857D01*
X161337523Y-97782095D01*
X161289904Y-97924952D01*
X160718476Y-98496380D01*
X161337523Y-98496380D01*
%TO.C,U1*%
X165862095Y-81494380D02*
X165862095Y-82303904D01*
X165909714Y-82399142D01*
X165957333Y-82446761D01*
X166052571Y-82494380D01*
X166243047Y-82494380D01*
X166338285Y-82446761D01*
X166385904Y-82399142D01*
X166433523Y-82303904D01*
X166433523Y-81494380D01*
X167433523Y-82494380D02*
X166862095Y-82494380D01*
X167147809Y-82494380D02*
X167147809Y-81494380D01*
X167052571Y-81637238D01*
X166957333Y-81732476D01*
X166862095Y-81780095D01*
%TO.C,R5*%
X165568333Y-93289380D02*
X165235000Y-92813190D01*
X164996904Y-93289380D02*
X164996904Y-92289380D01*
X165377857Y-92289380D01*
X165473095Y-92337000D01*
X165520714Y-92384619D01*
X165568333Y-92479857D01*
X165568333Y-92622714D01*
X165520714Y-92717952D01*
X165473095Y-92765571D01*
X165377857Y-92813190D01*
X164996904Y-92813190D01*
X166473095Y-92289380D02*
X165996904Y-92289380D01*
X165949285Y-92765571D01*
X165996904Y-92717952D01*
X166092142Y-92670333D01*
X166330238Y-92670333D01*
X166425476Y-92717952D01*
X166473095Y-92765571D01*
X166520714Y-92860809D01*
X166520714Y-93098904D01*
X166473095Y-93194142D01*
X166425476Y-93241761D01*
X166330238Y-93289380D01*
X166092142Y-93289380D01*
X165996904Y-93241761D01*
X165949285Y-93194142D01*
%TO.C,R4*%
X162266333Y-75128380D02*
X161933000Y-74652190D01*
X161694904Y-75128380D02*
X161694904Y-74128380D01*
X162075857Y-74128380D01*
X162171095Y-74176000D01*
X162218714Y-74223619D01*
X162266333Y-74318857D01*
X162266333Y-74461714D01*
X162218714Y-74556952D01*
X162171095Y-74604571D01*
X162075857Y-74652190D01*
X161694904Y-74652190D01*
X163123476Y-74461714D02*
X163123476Y-75128380D01*
X162885380Y-74080761D02*
X162647285Y-74795047D01*
X163266333Y-74795047D01*
%TO.C,R3*%
X160082380Y-78525666D02*
X159606190Y-78859000D01*
X160082380Y-79097095D02*
X159082380Y-79097095D01*
X159082380Y-78716142D01*
X159130000Y-78620904D01*
X159177619Y-78573285D01*
X159272857Y-78525666D01*
X159415714Y-78525666D01*
X159510952Y-78573285D01*
X159558571Y-78620904D01*
X159606190Y-78716142D01*
X159606190Y-79097095D01*
X159082380Y-78192333D02*
X159082380Y-77573285D01*
X159463333Y-77906619D01*
X159463333Y-77763761D01*
X159510952Y-77668523D01*
X159558571Y-77620904D01*
X159653809Y-77573285D01*
X159891904Y-77573285D01*
X159987142Y-77620904D01*
X160034761Y-77668523D01*
X160082380Y-77763761D01*
X160082380Y-78049476D01*
X160034761Y-78144714D01*
X159987142Y-78192333D01*
%TO.C,R2*%
X160091380Y-80557666D02*
X159615190Y-80891000D01*
X160091380Y-81129095D02*
X159091380Y-81129095D01*
X159091380Y-80748142D01*
X159139000Y-80652904D01*
X159186619Y-80605285D01*
X159281857Y-80557666D01*
X159424714Y-80557666D01*
X159519952Y-80605285D01*
X159567571Y-80652904D01*
X159615190Y-80748142D01*
X159615190Y-81129095D01*
X159186619Y-80176714D02*
X159139000Y-80129095D01*
X159091380Y-80033857D01*
X159091380Y-79795761D01*
X159139000Y-79700523D01*
X159186619Y-79652904D01*
X159281857Y-79605285D01*
X159377095Y-79605285D01*
X159519952Y-79652904D01*
X160091380Y-80224333D01*
X160091380Y-79605285D01*
%TO.C,R1*%
X160091380Y-82589666D02*
X159615190Y-82923000D01*
X160091380Y-83161095D02*
X159091380Y-83161095D01*
X159091380Y-82780142D01*
X159139000Y-82684904D01*
X159186619Y-82637285D01*
X159281857Y-82589666D01*
X159424714Y-82589666D01*
X159519952Y-82637285D01*
X159567571Y-82684904D01*
X159615190Y-82780142D01*
X159615190Y-83161095D01*
X160091380Y-81637285D02*
X160091380Y-82208714D01*
X160091380Y-81923000D02*
X159091380Y-81923000D01*
X159234238Y-82018238D01*
X159329476Y-82113476D01*
X159377095Y-82208714D01*
%TO.C,Q2*%
X178025619Y-87725238D02*
X177978000Y-87820476D01*
X177882761Y-87915714D01*
X177739904Y-88058571D01*
X177692285Y-88153809D01*
X177692285Y-88249047D01*
X177930380Y-88201428D02*
X177882761Y-88296666D01*
X177787523Y-88391904D01*
X177597047Y-88439523D01*
X177263714Y-88439523D01*
X177073238Y-88391904D01*
X176978000Y-88296666D01*
X176930380Y-88201428D01*
X176930380Y-88010952D01*
X176978000Y-87915714D01*
X177073238Y-87820476D01*
X177263714Y-87772857D01*
X177597047Y-87772857D01*
X177787523Y-87820476D01*
X177882761Y-87915714D01*
X177930380Y-88010952D01*
X177930380Y-88201428D01*
X177025619Y-87391904D02*
X176978000Y-87344285D01*
X176930380Y-87249047D01*
X176930380Y-87010952D01*
X176978000Y-86915714D01*
X177025619Y-86868095D01*
X177120857Y-86820476D01*
X177216095Y-86820476D01*
X177358952Y-86868095D01*
X177930380Y-87439523D01*
X177930380Y-86820476D01*
%TO.C,Q1*%
X177795619Y-79724238D02*
X177748000Y-79819476D01*
X177652761Y-79914714D01*
X177509904Y-80057571D01*
X177462285Y-80152809D01*
X177462285Y-80248047D01*
X177700380Y-80200428D02*
X177652761Y-80295666D01*
X177557523Y-80390904D01*
X177367047Y-80438523D01*
X177033714Y-80438523D01*
X176843238Y-80390904D01*
X176748000Y-80295666D01*
X176700380Y-80200428D01*
X176700380Y-80009952D01*
X176748000Y-79914714D01*
X176843238Y-79819476D01*
X177033714Y-79771857D01*
X177367047Y-79771857D01*
X177557523Y-79819476D01*
X177652761Y-79914714D01*
X177700380Y-80009952D01*
X177700380Y-80200428D01*
X177700380Y-78819476D02*
X177700380Y-79390904D01*
X177700380Y-79105190D02*
X176700380Y-79105190D01*
X176843238Y-79200428D01*
X176938476Y-79295666D01*
X176986095Y-79390904D01*
%TD*%
M02*
