M48
; DRILL file {KiCad (5.1.9-0-10_14)} date Sunday, February 28, 2021 at 12:18:16 AM
; FORMAT={-:-/ absolute / inch / decimal}
; #@! TF.CreationDate,2021-02-28T00:18:16+08:00
; #@! TF.GenerationSoftware,Kicad,Pcbnew,(5.1.9-0-10_14)
; #@! TF.FileFunction,NonPlated,1,2,NPTH
FMAT,2
INCH
T1C0.0256
T2C0.1161
T3C0.1575
%
G90
G05
T1
X4.125Y-2.55
X4.125Y-2.65
X4.125Y-5.15
X4.125Y-5.25
X4.155Y-2.55
X4.155Y-2.65
X4.155Y-5.15
X4.155Y-5.25
X4.185Y-2.55
X4.185Y-2.65
X4.185Y-5.15
X4.185Y-5.25
X4.205Y-2.52
X4.205Y-2.58
X4.205Y-2.62
X4.205Y-2.68
X4.205Y-5.12
X4.205Y-5.18
X4.205Y-5.22
X4.205Y-5.28
X4.225Y-2.55
X4.225Y-2.65
X4.225Y-5.15
X4.225Y-5.25
X4.245Y-2.52
X4.245Y-2.58
X4.245Y-2.62
X4.245Y-2.68
X4.245Y-5.12
X4.245Y-5.18
X4.245Y-5.22
X4.245Y-5.28
X4.265Y-2.55
X4.265Y-2.65
X4.265Y-5.15
X4.265Y-5.25
X4.295Y-2.55
X4.295Y-2.65
X4.295Y-5.15
X4.295Y-5.25
X4.325Y-2.55
X4.325Y-2.65
X4.325Y-5.15
X4.325Y-5.25
X4.45Y-5.15
X4.45Y-5.25
X4.475Y-2.55
X4.475Y-2.65
X4.48Y-5.15
X4.48Y-5.25
X4.505Y-2.55
X4.505Y-2.65
X4.51Y-5.15
X4.51Y-5.25
X4.53Y-5.12
X4.53Y-5.18
X4.53Y-5.22
X4.53Y-5.28
X4.535Y-2.55
X4.535Y-2.65
X4.55Y-5.15
X4.55Y-5.25
X4.555Y-2.52
X4.555Y-2.58
X4.555Y-2.62
X4.555Y-2.68
X4.57Y-5.12
X4.57Y-5.18
X4.57Y-5.22
X4.57Y-5.28
X4.575Y-2.55
X4.575Y-2.65
X4.59Y-5.15
X4.59Y-5.25
X4.595Y-2.52
X4.595Y-2.58
X4.595Y-2.62
X4.595Y-2.68
X4.615Y-2.55
X4.615Y-2.65
X4.62Y-5.15
X4.62Y-5.25
X4.645Y-2.55
X4.645Y-2.65
X4.65Y-5.15
X4.65Y-5.25
X4.675Y-2.55
X4.675Y-2.65
X5.345Y-2.905
X5.345Y-2.945
X5.345Y-4.855
X5.345Y-4.895
X5.375Y-2.825
X5.375Y-2.855
X5.375Y-2.885
X5.375Y-2.925
X5.375Y-2.965
X5.375Y-2.995
X5.375Y-3.025
X5.375Y-4.775
X5.375Y-4.805
X5.375Y-4.835
X5.375Y-4.875
X5.375Y-4.915
X5.375Y-4.945
X5.375Y-4.975
X5.405Y-2.905
X5.405Y-2.945
X5.405Y-4.855
X5.405Y-4.895
X5.445Y-2.905
X5.445Y-2.945
X5.445Y-4.855
X5.445Y-4.895
X5.475Y-2.825
X5.475Y-2.855
X5.475Y-2.885
X5.475Y-2.925
X5.475Y-2.965
X5.475Y-2.995
X5.475Y-3.025
X5.475Y-4.775
X5.475Y-4.805
X5.475Y-4.835
X5.475Y-4.875
X5.475Y-4.915
X5.475Y-4.945
X5.475Y-4.975
X5.505Y-2.905
X5.505Y-2.945
X5.505Y-4.855
X5.505Y-4.895
X6.175Y-2.55
X6.175Y-2.65
X6.2Y-5.15
X6.2Y-5.25
X6.205Y-2.55
X6.205Y-2.65
X6.23Y-5.15
X6.23Y-5.25
X6.235Y-2.55
X6.235Y-2.65
X6.255Y-2.52
X6.255Y-2.58
X6.255Y-2.62
X6.255Y-2.68
X6.26Y-5.15
X6.26Y-5.25
X6.275Y-2.55
X6.275Y-2.65
X6.28Y-5.12
X6.28Y-5.18
X6.28Y-5.22
X6.28Y-5.28
X6.295Y-2.52
X6.295Y-2.58
X6.295Y-2.62
X6.295Y-2.68
X6.3Y-5.15
X6.3Y-5.25
X6.315Y-2.55
X6.315Y-2.65
X6.32Y-5.12
X6.32Y-5.18
X6.32Y-5.22
X6.32Y-5.28
X6.34Y-5.15
X6.34Y-5.25
X6.345Y-2.55
X6.345Y-2.65
X6.37Y-5.15
X6.37Y-5.25
X6.375Y-2.55
X6.375Y-2.65
X6.4Y-5.15
X6.4Y-5.25
X6.5Y-5.15
X6.5Y-5.25
X6.525Y-2.55
X6.525Y-2.65
X6.53Y-5.15
X6.53Y-5.25
X6.555Y-2.55
X6.555Y-2.65
X6.56Y-5.15
X6.56Y-5.25
X6.58Y-5.12
X6.58Y-5.18
X6.58Y-5.22
X6.58Y-5.28
X6.585Y-2.55
X6.585Y-2.65
X6.6Y-5.15
X6.6Y-5.25
X6.605Y-2.52
X6.605Y-2.58
X6.605Y-2.62
X6.605Y-2.68
X6.62Y-5.12
X6.62Y-5.18
X6.62Y-5.22
X6.62Y-5.28
X6.625Y-2.55
X6.625Y-2.65
X6.64Y-5.15
X6.64Y-5.25
X6.645Y-2.52
X6.645Y-2.58
X6.645Y-2.62
X6.645Y-2.68
X6.665Y-2.55
X6.665Y-2.65
X6.67Y-5.15
X6.67Y-5.25
X6.695Y-2.55
X6.695Y-2.65
X6.7Y-5.15
X6.7Y-5.25
X6.725Y-2.55
X6.725Y-2.65
T2
X3.8531Y-4.7
X3.8531Y-5.015
X4.05Y-4.7
X4.05Y-5.015
X4.85Y-4.7
X4.85Y-5.015
X5.0469Y-4.7
X5.0469Y-5.015
X5.9031Y-4.7
X5.9031Y-5.015
X6.1Y-4.7
X6.1Y-5.015
X6.9Y-4.7
X6.9Y-5.015
X7.0969Y-4.7
X7.0969Y-5.015
T3
X3.825Y-2.55
X3.825Y-5.25
X4.975Y-2.55
X4.975Y-5.25
X5.875Y-2.55
X5.875Y-5.25
X7.025Y-2.55
X7.025Y-5.25
T0
M30
