%TF.GenerationSoftware,KiCad,Pcbnew,(5.1.9-0-10_14)*%
%TF.CreationDate,2021-02-28T00:18:14+08:00*%
%TF.ProjectId,panelized,70616e65-6c69-47a6-9564-2e6b69636164,rev?*%
%TF.SameCoordinates,Original*%
%TF.FileFunction,Paste,Bot*%
%TF.FilePolarity,Positive*%
%FSLAX46Y46*%
G04 Gerber Fmt 4.6, Leading zero omitted, Abs format (unit mm)*
G04 Created by KiCad (PCBNEW (5.1.9-0-10_14)) date 2021-02-28 00:18:14*
%MOMM*%
%LPD*%
G01*
G04 APERTURE LIST*
%ADD10R,1.200000X1.200000*%
%ADD11R,1.600000X1.500000*%
G04 APERTURE END LIST*
%TO.C,R6*%
G36*
G01*
X93911000Y-125384000D02*
X94811002Y-125384000D01*
G75*
G02*
X95061001Y-125633999I0J-249999D01*
G01*
X95061001Y-126334001D01*
G75*
G02*
X94811002Y-126584000I-249999J0D01*
G01*
X93911000Y-126584000D01*
G75*
G02*
X93661001Y-126334001I0J249999D01*
G01*
X93661001Y-125633999D01*
G75*
G02*
X93911000Y-125384000I249999J0D01*
G01*
G37*
G36*
G01*
X93911000Y-123384000D02*
X94811002Y-123384000D01*
G75*
G02*
X95061001Y-123633999I0J-249999D01*
G01*
X95061001Y-124334001D01*
G75*
G02*
X94811002Y-124584000I-249999J0D01*
G01*
X93911000Y-124584000D01*
G75*
G02*
X93661001Y-124334001I0J249999D01*
G01*
X93661001Y-123633999D01*
G75*
G02*
X93911000Y-123384000I249999J0D01*
G01*
G37*
%TD*%
%TO.C,D2*%
G36*
G01*
X94811001Y-120699000D02*
X93910999Y-120699000D01*
G75*
G02*
X93661000Y-120449001I0J249999D01*
G01*
X93661000Y-119798999D01*
G75*
G02*
X93910999Y-119549000I249999J0D01*
G01*
X94811001Y-119549000D01*
G75*
G02*
X95061000Y-119798999I0J-249999D01*
G01*
X95061000Y-120449001D01*
G75*
G02*
X94811001Y-120699000I-249999J0D01*
G01*
G37*
G36*
G01*
X94811001Y-122749000D02*
X93910999Y-122749000D01*
G75*
G02*
X93661000Y-122499001I0J249999D01*
G01*
X93661000Y-121848999D01*
G75*
G02*
X93910999Y-121599000I249999J0D01*
G01*
X94811001Y-121599000D01*
G75*
G02*
X95061000Y-121848999I0J-249999D01*
G01*
X95061000Y-122499001D01*
G75*
G02*
X94811001Y-122749000I-249999J0D01*
G01*
G37*
%TD*%
D10*
%TO.C,RV1*%
X113554000Y-122323000D03*
D11*
X114554000Y-119023000D03*
D10*
X115554000Y-122323000D03*
%TD*%
%TO.C,R7*%
G36*
G01*
X105658499Y-125638000D02*
X106558501Y-125638000D01*
G75*
G02*
X106808500Y-125887999I0J-249999D01*
G01*
X106808500Y-126588001D01*
G75*
G02*
X106558501Y-126838000I-249999J0D01*
G01*
X105658499Y-126838000D01*
G75*
G02*
X105408500Y-126588001I0J249999D01*
G01*
X105408500Y-125887999D01*
G75*
G02*
X105658499Y-125638000I249999J0D01*
G01*
G37*
G36*
G01*
X105658499Y-123638000D02*
X106558501Y-123638000D01*
G75*
G02*
X106808500Y-123887999I0J-249999D01*
G01*
X106808500Y-124588001D01*
G75*
G02*
X106558501Y-124838000I-249999J0D01*
G01*
X105658499Y-124838000D01*
G75*
G02*
X105408500Y-124588001I0J249999D01*
G01*
X105408500Y-123887999D01*
G75*
G02*
X105658499Y-123638000I249999J0D01*
G01*
G37*
%TD*%
%TO.C,D1*%
G36*
G01*
X106558501Y-120882500D02*
X105658499Y-120882500D01*
G75*
G02*
X105408500Y-120632501I0J249999D01*
G01*
X105408500Y-119982499D01*
G75*
G02*
X105658499Y-119732500I249999J0D01*
G01*
X106558501Y-119732500D01*
G75*
G02*
X106808500Y-119982499I0J-249999D01*
G01*
X106808500Y-120632501D01*
G75*
G02*
X106558501Y-120882500I-249999J0D01*
G01*
G37*
G36*
G01*
X106558501Y-122932500D02*
X105658499Y-122932500D01*
G75*
G02*
X105408500Y-122682501I0J249999D01*
G01*
X105408500Y-122032499D01*
G75*
G02*
X105658499Y-121782500I249999J0D01*
G01*
X106558501Y-121782500D01*
G75*
G02*
X106808500Y-122032499I0J-249999D01*
G01*
X106808500Y-122682501D01*
G75*
G02*
X106558501Y-122932500I-249999J0D01*
G01*
G37*
%TD*%
%TO.C,R6*%
G36*
G01*
X145981000Y-125384000D02*
X146881002Y-125384000D01*
G75*
G02*
X147131001Y-125633999I0J-249999D01*
G01*
X147131001Y-126334001D01*
G75*
G02*
X146881002Y-126584000I-249999J0D01*
G01*
X145981000Y-126584000D01*
G75*
G02*
X145731001Y-126334001I0J249999D01*
G01*
X145731001Y-125633999D01*
G75*
G02*
X145981000Y-125384000I249999J0D01*
G01*
G37*
G36*
G01*
X145981000Y-123384000D02*
X146881002Y-123384000D01*
G75*
G02*
X147131001Y-123633999I0J-249999D01*
G01*
X147131001Y-124334001D01*
G75*
G02*
X146881002Y-124584000I-249999J0D01*
G01*
X145981000Y-124584000D01*
G75*
G02*
X145731001Y-124334001I0J249999D01*
G01*
X145731001Y-123633999D01*
G75*
G02*
X145981000Y-123384000I249999J0D01*
G01*
G37*
%TD*%
%TO.C,D2*%
G36*
G01*
X146881001Y-120699000D02*
X145980999Y-120699000D01*
G75*
G02*
X145731000Y-120449001I0J249999D01*
G01*
X145731000Y-119798999D01*
G75*
G02*
X145980999Y-119549000I249999J0D01*
G01*
X146881001Y-119549000D01*
G75*
G02*
X147131000Y-119798999I0J-249999D01*
G01*
X147131000Y-120449001D01*
G75*
G02*
X146881001Y-120699000I-249999J0D01*
G01*
G37*
G36*
G01*
X146881001Y-122749000D02*
X145980999Y-122749000D01*
G75*
G02*
X145731000Y-122499001I0J249999D01*
G01*
X145731000Y-121848999D01*
G75*
G02*
X145980999Y-121599000I249999J0D01*
G01*
X146881001Y-121599000D01*
G75*
G02*
X147131000Y-121848999I0J-249999D01*
G01*
X147131000Y-122499001D01*
G75*
G02*
X146881001Y-122749000I-249999J0D01*
G01*
G37*
%TD*%
%TO.C,RV1*%
X165624000Y-122323000D03*
D11*
X166624000Y-119023000D03*
D10*
X167624000Y-122323000D03*
%TD*%
%TO.C,R7*%
G36*
G01*
X157728499Y-125638000D02*
X158628501Y-125638000D01*
G75*
G02*
X158878500Y-125887999I0J-249999D01*
G01*
X158878500Y-126588001D01*
G75*
G02*
X158628501Y-126838000I-249999J0D01*
G01*
X157728499Y-126838000D01*
G75*
G02*
X157478500Y-126588001I0J249999D01*
G01*
X157478500Y-125887999D01*
G75*
G02*
X157728499Y-125638000I249999J0D01*
G01*
G37*
G36*
G01*
X157728499Y-123638000D02*
X158628501Y-123638000D01*
G75*
G02*
X158878500Y-123887999I0J-249999D01*
G01*
X158878500Y-124588001D01*
G75*
G02*
X158628501Y-124838000I-249999J0D01*
G01*
X157728499Y-124838000D01*
G75*
G02*
X157478500Y-124588001I0J249999D01*
G01*
X157478500Y-123887999D01*
G75*
G02*
X157728499Y-123638000I249999J0D01*
G01*
G37*
%TD*%
%TO.C,D1*%
G36*
G01*
X158628501Y-120882500D02*
X157728499Y-120882500D01*
G75*
G02*
X157478500Y-120632501I0J249999D01*
G01*
X157478500Y-119982499D01*
G75*
G02*
X157728499Y-119732500I249999J0D01*
G01*
X158628501Y-119732500D01*
G75*
G02*
X158878500Y-119982499I0J-249999D01*
G01*
X158878500Y-120632501D01*
G75*
G02*
X158628501Y-120882500I-249999J0D01*
G01*
G37*
G36*
G01*
X158628501Y-122932500D02*
X157728499Y-122932500D01*
G75*
G02*
X157478500Y-122682501I0J249999D01*
G01*
X157478500Y-122032499D01*
G75*
G02*
X157728499Y-121782500I249999J0D01*
G01*
X158628501Y-121782500D01*
G75*
G02*
X158878500Y-122032499I0J-249999D01*
G01*
X158878500Y-122682501D01*
G75*
G02*
X158628501Y-122932500I-249999J0D01*
G01*
G37*
%TD*%
M02*
