M48
; DRILL file {KiCad (5.1.9-0-10_14)} date Sunday, February 28, 2021 at 12:18:16 AM
; FORMAT={-:-/ absolute / inch / decimal}
; #@! TF.CreationDate,2021-02-28T00:18:16+08:00
; #@! TF.GenerationSoftware,Kicad,Pcbnew,(5.1.9-0-10_14)
; #@! TF.FileFunction,Plated,1,2,PTH
FMAT,2
INCH
T1C0.0157
%
G90
G05
T1
X3.535Y-3.2
X3.535Y-3.24
X3.535Y-3.28
X3.535Y-3.32
X3.535Y-3.36
X3.535Y-3.4
X3.535Y-3.44
X3.535Y-3.48
X3.535Y-3.52
X3.535Y-3.56
X3.535Y-3.6
X3.535Y-3.64
X3.535Y-3.68
X3.535Y-3.72
X3.535Y-3.76
X3.535Y-3.8
X3.535Y-3.84
X3.535Y-3.88
X3.535Y-3.92
X3.535Y-3.96
X3.535Y-4.0
X3.535Y-4.04
X3.535Y-4.08
X3.575Y-3.2
X3.575Y-3.24
X3.575Y-3.28
X3.575Y-3.32
X3.575Y-3.36
X3.575Y-3.4
X3.575Y-3.44
X3.575Y-3.48
X3.575Y-3.52
X3.575Y-3.56
X3.575Y-3.6
X3.575Y-3.64
X3.575Y-3.68
X3.575Y-3.72
X3.575Y-3.76
X3.575Y-3.8
X3.575Y-3.84
X3.575Y-3.88
X3.575Y-3.92
X3.575Y-3.96
X3.575Y-4.0
X3.575Y-4.04
X3.575Y-4.08
X3.615Y-3.2
X3.615Y-3.24
X3.615Y-3.28
X3.615Y-3.32
X3.615Y-3.36
X3.615Y-3.4
X3.615Y-3.44
X3.615Y-3.48
X3.615Y-3.52
X3.615Y-3.56
X3.615Y-3.6
X3.615Y-3.64
X3.615Y-3.68
X3.615Y-3.72
X3.615Y-3.76
X3.615Y-3.8
X3.615Y-3.84
X3.615Y-3.88
X3.615Y-3.92
X3.615Y-3.96
X3.615Y-4.0
X3.615Y-4.04
X3.615Y-4.08
X3.655Y-3.2
X3.655Y-3.24
X3.655Y-3.28
X3.655Y-3.32
X3.655Y-3.36
X3.655Y-3.4
X3.655Y-3.44
X3.655Y-3.48
X3.655Y-3.52
X3.655Y-3.56
X3.655Y-3.6
X3.655Y-3.64
X3.655Y-3.68
X3.655Y-3.72
X3.655Y-3.76
X3.655Y-3.8
X3.655Y-3.84
X3.655Y-3.88
X3.655Y-3.92
X3.655Y-3.96
X3.655Y-4.0
X3.655Y-4.04
X3.655Y-4.08
X3.695Y-3.2
X3.695Y-3.24
X3.695Y-3.28
X3.695Y-3.32
X3.695Y-3.36
X3.695Y-3.4
X3.695Y-3.44
X3.695Y-3.48
X3.695Y-3.52
X3.695Y-3.56
X3.695Y-3.6
X3.695Y-3.64
X3.695Y-3.68
X3.695Y-3.72
X3.695Y-3.76
X3.695Y-3.8
X3.695Y-3.84
X3.695Y-3.88
X3.695Y-3.92
X3.695Y-3.96
X3.695Y-4.0
X3.695Y-4.04
X3.695Y-4.08
X3.735Y-3.2
X3.735Y-3.24
X3.735Y-3.28
X3.735Y-3.32
X3.735Y-3.36
X3.735Y-3.4
X3.735Y-3.44
X3.735Y-3.48
X3.735Y-3.52
X3.735Y-3.56
X3.735Y-3.6
X3.735Y-3.64
X3.735Y-3.68
X3.735Y-3.72
X3.735Y-3.76
X3.735Y-3.8
X3.735Y-3.84
X3.735Y-3.88
X3.735Y-3.92
X3.735Y-3.96
X3.735Y-4.0
X3.735Y-4.04
X3.735Y-4.08
X3.775Y-3.2
X3.775Y-3.24
X3.775Y-3.28
X3.775Y-3.32
X3.775Y-3.36
X3.775Y-3.4
X3.775Y-3.44
X3.775Y-3.48
X3.775Y-3.52
X3.775Y-3.56
X3.775Y-3.6
X3.775Y-3.64
X3.775Y-3.68
X3.775Y-3.72
X3.775Y-3.76
X3.775Y-3.8
X3.775Y-3.84
X3.775Y-3.88
X3.775Y-3.92
X3.775Y-3.96
X3.775Y-4.0
X3.775Y-4.04
X3.775Y-4.08
X3.79Y-4.28
X3.79Y-4.32
X3.79Y-4.36
X3.79Y-4.4
X3.79Y-4.44
X3.79Y-4.48
X3.815Y-3.2
X3.815Y-3.24
X3.815Y-3.28
X3.815Y-3.32
X3.815Y-3.36
X3.815Y-3.4
X3.815Y-3.44
X3.815Y-3.48
X3.815Y-3.52
X3.815Y-3.56
X3.815Y-3.6
X3.815Y-3.64
X3.815Y-3.68
X3.815Y-3.72
X3.815Y-3.76
X3.815Y-3.8
X3.815Y-3.84
X3.815Y-3.88
X3.815Y-3.92
X3.815Y-3.96
X3.815Y-4.0
X3.815Y-4.04
X3.815Y-4.08
X3.83Y-4.28
X3.83Y-4.32
X3.83Y-4.36
X3.83Y-4.4
X3.83Y-4.44
X3.83Y-4.48
X3.855Y-3.2
X3.855Y-3.24
X3.855Y-3.28
X3.855Y-3.32
X3.855Y-3.36
X3.855Y-3.4
X3.855Y-3.44
X3.855Y-3.48
X3.855Y-3.52
X3.855Y-3.56
X3.855Y-3.6
X3.855Y-3.64
X3.855Y-3.68
X3.855Y-3.72
X3.855Y-3.76
X3.855Y-3.8
X3.855Y-3.84
X3.855Y-3.88
X3.855Y-3.92
X3.855Y-3.96
X3.855Y-4.0
X3.855Y-4.04
X3.855Y-4.08
X3.87Y-4.28
X3.87Y-4.32
X3.87Y-4.36
X3.87Y-4.4
X3.87Y-4.44
X3.87Y-4.48
X3.895Y-3.2
X3.895Y-3.24
X3.895Y-3.28
X3.895Y-3.32
X3.895Y-3.36
X3.895Y-3.4
X3.895Y-3.44
X3.895Y-3.48
X3.895Y-3.52
X3.895Y-3.56
X3.895Y-3.6
X3.895Y-3.64
X3.895Y-3.68
X3.895Y-3.72
X3.895Y-3.76
X3.895Y-3.8
X3.895Y-3.84
X3.895Y-3.88
X3.895Y-3.92
X3.895Y-3.96
X3.895Y-4.0
X3.895Y-4.04
X3.895Y-4.08
X3.91Y-4.28
X3.91Y-4.32
X3.91Y-4.36
X3.91Y-4.4
X3.91Y-4.44
X3.91Y-4.48
X3.935Y-3.2
X3.935Y-3.24
X3.935Y-3.28
X3.935Y-3.32
X3.935Y-3.36
X3.935Y-3.4
X3.935Y-3.44
X3.935Y-3.48
X3.935Y-3.52
X3.935Y-3.56
X3.935Y-3.6
X3.935Y-3.64
X3.935Y-3.68
X3.935Y-3.72
X3.935Y-3.76
X3.935Y-3.8
X3.935Y-3.84
X3.935Y-3.88
X3.935Y-3.92
X3.935Y-3.96
X3.935Y-4.0
X3.935Y-4.04
X3.935Y-4.08
X3.975Y-3.2
X3.975Y-3.24
X3.975Y-3.28
X3.975Y-3.32
X3.975Y-3.36
X3.975Y-3.4
X3.975Y-3.44
X3.975Y-3.48
X3.975Y-3.52
X3.975Y-3.56
X3.975Y-3.6
X3.975Y-3.68
X3.975Y-3.72
X3.975Y-3.76
X3.975Y-3.8
X3.975Y-3.84
X3.975Y-3.88
X3.975Y-3.92
X3.975Y-3.96
X3.975Y-4.0
X3.975Y-4.04
X3.975Y-4.08
X4.015Y-3.2
X4.015Y-3.24
X4.015Y-3.28
X4.015Y-3.32
X4.015Y-3.36
X4.015Y-3.4
X4.015Y-3.44
X4.015Y-3.48
X4.015Y-3.52
X4.015Y-3.56
X4.015Y-3.6
X4.015Y-3.64
X4.015Y-3.68
X4.015Y-3.72
X4.015Y-3.76
X4.015Y-3.8
X4.015Y-3.84
X4.015Y-3.88
X4.015Y-3.92
X4.015Y-3.96
X4.015Y-4.0
X4.015Y-4.04
X4.015Y-4.08
X4.08Y-3.91
X4.085Y-3.38
X4.31Y-3.08
X4.31Y-3.325
X4.329Y-3.5123
X4.329Y-3.78
X4.4412Y-3.0914
X4.475Y-3.51
X4.525Y-3.4224
X4.53Y-3.4935
X4.55Y-4.815
X4.5524Y-3.28
X4.5882Y-3.1208
X4.6076Y-3.285
X4.74Y-3.63
X4.79Y-4.29
X4.79Y-4.33
X4.79Y-4.37
X4.79Y-4.41
X4.79Y-4.45
X4.79Y-4.49
X4.83Y-4.29
X4.83Y-4.33
X4.83Y-4.37
X4.83Y-4.41
X4.83Y-4.45
X4.83Y-4.49
X4.87Y-4.29
X4.87Y-4.33
X4.87Y-4.37
X4.87Y-4.41
X4.87Y-4.45
X4.87Y-4.49
X4.91Y-4.29
X4.91Y-4.33
X4.91Y-4.37
X4.91Y-4.41
X4.91Y-4.45
X4.91Y-4.49
X5.585Y-3.2
X5.585Y-3.24
X5.585Y-3.28
X5.585Y-3.32
X5.585Y-3.36
X5.585Y-3.4
X5.585Y-3.44
X5.585Y-3.48
X5.585Y-3.52
X5.585Y-3.56
X5.585Y-3.6
X5.585Y-3.64
X5.585Y-3.68
X5.585Y-3.72
X5.585Y-3.76
X5.585Y-3.8
X5.585Y-3.84
X5.585Y-3.88
X5.585Y-3.92
X5.585Y-3.96
X5.585Y-4.0
X5.585Y-4.04
X5.585Y-4.08
X5.625Y-3.2
X5.625Y-3.24
X5.625Y-3.28
X5.625Y-3.32
X5.625Y-3.36
X5.625Y-3.4
X5.625Y-3.44
X5.625Y-3.48
X5.625Y-3.52
X5.625Y-3.56
X5.625Y-3.6
X5.625Y-3.64
X5.625Y-3.68
X5.625Y-3.72
X5.625Y-3.76
X5.625Y-3.8
X5.625Y-3.84
X5.625Y-3.88
X5.625Y-3.92
X5.625Y-3.96
X5.625Y-4.0
X5.625Y-4.04
X5.625Y-4.08
X5.665Y-3.2
X5.665Y-3.24
X5.665Y-3.28
X5.665Y-3.32
X5.665Y-3.36
X5.665Y-3.4
X5.665Y-3.44
X5.665Y-3.48
X5.665Y-3.52
X5.665Y-3.56
X5.665Y-3.6
X5.665Y-3.64
X5.665Y-3.68
X5.665Y-3.72
X5.665Y-3.76
X5.665Y-3.8
X5.665Y-3.84
X5.665Y-3.88
X5.665Y-3.92
X5.665Y-3.96
X5.665Y-4.0
X5.665Y-4.04
X5.665Y-4.08
X5.705Y-3.2
X5.705Y-3.24
X5.705Y-3.28
X5.705Y-3.32
X5.705Y-3.36
X5.705Y-3.4
X5.705Y-3.44
X5.705Y-3.48
X5.705Y-3.52
X5.705Y-3.56
X5.705Y-3.6
X5.705Y-3.64
X5.705Y-3.68
X5.705Y-3.72
X5.705Y-3.76
X5.705Y-3.8
X5.705Y-3.84
X5.705Y-3.88
X5.705Y-3.92
X5.705Y-3.96
X5.705Y-4.0
X5.705Y-4.04
X5.705Y-4.08
X5.745Y-3.2
X5.745Y-3.24
X5.745Y-3.28
X5.745Y-3.32
X5.745Y-3.36
X5.745Y-3.4
X5.745Y-3.44
X5.745Y-3.48
X5.745Y-3.52
X5.745Y-3.56
X5.745Y-3.6
X5.745Y-3.64
X5.745Y-3.68
X5.745Y-3.72
X5.745Y-3.76
X5.745Y-3.8
X5.745Y-3.84
X5.745Y-3.88
X5.745Y-3.92
X5.745Y-3.96
X5.745Y-4.0
X5.745Y-4.04
X5.745Y-4.08
X5.785Y-3.2
X5.785Y-3.24
X5.785Y-3.28
X5.785Y-3.32
X5.785Y-3.36
X5.785Y-3.4
X5.785Y-3.44
X5.785Y-3.48
X5.785Y-3.52
X5.785Y-3.56
X5.785Y-3.6
X5.785Y-3.64
X5.785Y-3.68
X5.785Y-3.72
X5.785Y-3.76
X5.785Y-3.8
X5.785Y-3.84
X5.785Y-3.88
X5.785Y-3.92
X5.785Y-3.96
X5.785Y-4.0
X5.785Y-4.04
X5.785Y-4.08
X5.825Y-3.2
X5.825Y-3.24
X5.825Y-3.28
X5.825Y-3.32
X5.825Y-3.36
X5.825Y-3.4
X5.825Y-3.44
X5.825Y-3.48
X5.825Y-3.52
X5.825Y-3.56
X5.825Y-3.6
X5.825Y-3.64
X5.825Y-3.68
X5.825Y-3.72
X5.825Y-3.76
X5.825Y-3.8
X5.825Y-3.84
X5.825Y-3.88
X5.825Y-3.92
X5.825Y-3.96
X5.825Y-4.0
X5.825Y-4.04
X5.825Y-4.08
X5.84Y-4.28
X5.84Y-4.32
X5.84Y-4.36
X5.84Y-4.4
X5.84Y-4.44
X5.84Y-4.48
X5.865Y-3.2
X5.865Y-3.24
X5.865Y-3.28
X5.865Y-3.32
X5.865Y-3.36
X5.865Y-3.4
X5.865Y-3.44
X5.865Y-3.48
X5.865Y-3.52
X5.865Y-3.56
X5.865Y-3.6
X5.865Y-3.64
X5.865Y-3.68
X5.865Y-3.72
X5.865Y-3.76
X5.865Y-3.8
X5.865Y-3.84
X5.865Y-3.88
X5.865Y-3.92
X5.865Y-3.96
X5.865Y-4.0
X5.865Y-4.04
X5.865Y-4.08
X5.88Y-4.28
X5.88Y-4.32
X5.88Y-4.36
X5.88Y-4.4
X5.88Y-4.44
X5.88Y-4.48
X5.905Y-3.2
X5.905Y-3.24
X5.905Y-3.28
X5.905Y-3.32
X5.905Y-3.36
X5.905Y-3.4
X5.905Y-3.44
X5.905Y-3.48
X5.905Y-3.52
X5.905Y-3.56
X5.905Y-3.6
X5.905Y-3.64
X5.905Y-3.68
X5.905Y-3.72
X5.905Y-3.76
X5.905Y-3.8
X5.905Y-3.84
X5.905Y-3.88
X5.905Y-3.92
X5.905Y-3.96
X5.905Y-4.0
X5.905Y-4.04
X5.905Y-4.08
X5.92Y-4.28
X5.92Y-4.32
X5.92Y-4.36
X5.92Y-4.4
X5.92Y-4.44
X5.92Y-4.48
X5.945Y-3.2
X5.945Y-3.24
X5.945Y-3.28
X5.945Y-3.32
X5.945Y-3.36
X5.945Y-3.4
X5.945Y-3.44
X5.945Y-3.48
X5.945Y-3.52
X5.945Y-3.56
X5.945Y-3.6
X5.945Y-3.64
X5.945Y-3.68
X5.945Y-3.72
X5.945Y-3.76
X5.945Y-3.8
X5.945Y-3.84
X5.945Y-3.88
X5.945Y-3.92
X5.945Y-3.96
X5.945Y-4.0
X5.945Y-4.04
X5.945Y-4.08
X5.96Y-4.28
X5.96Y-4.32
X5.96Y-4.36
X5.96Y-4.4
X5.96Y-4.44
X5.96Y-4.48
X5.985Y-3.2
X5.985Y-3.24
X5.985Y-3.28
X5.985Y-3.32
X5.985Y-3.36
X5.985Y-3.4
X5.985Y-3.44
X5.985Y-3.48
X5.985Y-3.52
X5.985Y-3.56
X5.985Y-3.6
X5.985Y-3.64
X5.985Y-3.68
X5.985Y-3.72
X5.985Y-3.76
X5.985Y-3.8
X5.985Y-3.84
X5.985Y-3.88
X5.985Y-3.92
X5.985Y-3.96
X5.985Y-4.0
X5.985Y-4.04
X5.985Y-4.08
X6.025Y-3.2
X6.025Y-3.24
X6.025Y-3.28
X6.025Y-3.32
X6.025Y-3.36
X6.025Y-3.4
X6.025Y-3.44
X6.025Y-3.48
X6.025Y-3.52
X6.025Y-3.56
X6.025Y-3.6
X6.025Y-3.68
X6.025Y-3.72
X6.025Y-3.76
X6.025Y-3.8
X6.025Y-3.84
X6.025Y-3.88
X6.025Y-3.92
X6.025Y-3.96
X6.025Y-4.0
X6.025Y-4.04
X6.025Y-4.08
X6.065Y-3.2
X6.065Y-3.24
X6.065Y-3.28
X6.065Y-3.32
X6.065Y-3.36
X6.065Y-3.4
X6.065Y-3.44
X6.065Y-3.48
X6.065Y-3.52
X6.065Y-3.56
X6.065Y-3.6
X6.065Y-3.64
X6.065Y-3.68
X6.065Y-3.72
X6.065Y-3.76
X6.065Y-3.8
X6.065Y-3.84
X6.065Y-3.88
X6.065Y-3.92
X6.065Y-3.96
X6.065Y-4.0
X6.065Y-4.04
X6.065Y-4.08
X6.13Y-3.91
X6.135Y-3.38
X6.36Y-3.08
X6.36Y-3.325
X6.379Y-3.5123
X6.379Y-3.78
X6.4912Y-3.0914
X6.525Y-3.51
X6.575Y-3.4224
X6.58Y-3.4935
X6.6Y-4.815
X6.6024Y-3.28
X6.6382Y-3.1208
X6.6576Y-3.285
X6.79Y-3.63
X6.84Y-4.29
X6.84Y-4.33
X6.84Y-4.37
X6.84Y-4.41
X6.84Y-4.45
X6.84Y-4.49
X6.88Y-4.29
X6.88Y-4.33
X6.88Y-4.37
X6.88Y-4.41
X6.88Y-4.45
X6.88Y-4.49
X6.92Y-4.29
X6.92Y-4.33
X6.92Y-4.37
X6.92Y-4.41
X6.92Y-4.45
X6.92Y-4.49
X6.96Y-4.29
X6.96Y-4.33
X6.96Y-4.37
X6.96Y-4.41
X6.96Y-4.45
X6.96Y-4.49
T0
M30
