%TF.GenerationSoftware,KiCad,Pcbnew,(5.1.9-0-10_14)*%
%TF.CreationDate,2021-02-28T00:18:14+08:00*%
%TF.ProjectId,panelized,70616e65-6c69-47a6-9564-2e6b69636164,rev?*%
%TF.SameCoordinates,Original*%
%TF.FileFunction,Legend,Bot*%
%TF.FilePolarity,Positive*%
%FSLAX46Y46*%
G04 Gerber Fmt 4.6, Leading zero omitted, Abs format (unit mm)*
G04 Created by KiCad (PCBNEW (5.1.9-0-10_14)) date 2021-02-28 00:18:14*
%MOMM*%
%LPD*%
G01*
G04 APERTURE LIST*
%ADD10C,0.120000*%
%ADD11C,0.150000*%
G04 APERTURE END LIST*
D10*
X134620000Y-128270000D02*
G75*
G02*
X133985000Y-128905000I-635000J0D01*
G01*
X89535000Y-128905000D02*
G75*
G02*
X88900000Y-128270000I0J635000D01*
G01*
X134620000Y-116840000D02*
X134620000Y-128270000D01*
X88900000Y-116840000D02*
X88900000Y-128270000D01*
X133350000Y-115570000D02*
X90170000Y-115570000D01*
X88900000Y-116840000D02*
G75*
G02*
X90170000Y-115570000I1270000J0D01*
G01*
X133350000Y-115570000D02*
G75*
G02*
X134620000Y-116840000I0J-1270000D01*
G01*
D11*
X92527380Y-121672142D02*
X92051190Y-121422142D01*
X92527380Y-121243571D02*
X91527380Y-121243571D01*
X91527380Y-121529285D01*
X91575000Y-121600714D01*
X91622619Y-121636428D01*
X91717857Y-121672142D01*
X91860714Y-121672142D01*
X91955952Y-121636428D01*
X92003571Y-121600714D01*
X92051190Y-121529285D01*
X92051190Y-121243571D01*
X92479761Y-122279285D02*
X92527380Y-122207857D01*
X92527380Y-122065000D01*
X92479761Y-121993571D01*
X92384523Y-121957857D01*
X92003571Y-121957857D01*
X91908333Y-121993571D01*
X91860714Y-122065000D01*
X91860714Y-122207857D01*
X91908333Y-122279285D01*
X92003571Y-122315000D01*
X92098809Y-122315000D01*
X92194047Y-121957857D01*
X91860714Y-122957857D02*
X92670238Y-122957857D01*
X92765476Y-122922142D01*
X92813095Y-122886428D01*
X92860714Y-122815000D01*
X92860714Y-122707857D01*
X92813095Y-122636428D01*
X92479761Y-122957857D02*
X92527380Y-122886428D01*
X92527380Y-122743571D01*
X92479761Y-122672142D01*
X92432142Y-122636428D01*
X92336904Y-122600714D01*
X92051190Y-122600714D01*
X91955952Y-122636428D01*
X91908333Y-122672142D01*
X91860714Y-122743571D01*
X91860714Y-122886428D01*
X91908333Y-122957857D01*
X92622619Y-123136428D02*
X92622619Y-123707857D01*
X92003571Y-123886428D02*
X92003571Y-124136428D01*
X92527380Y-124243571D02*
X92527380Y-123886428D01*
X91527380Y-123886428D01*
X91527380Y-124243571D01*
X92527380Y-124565000D02*
X91860714Y-124565000D01*
X92051190Y-124565000D02*
X91955952Y-124600714D01*
X91908333Y-124636428D01*
X91860714Y-124707857D01*
X91860714Y-124779285D01*
X92527380Y-125029285D02*
X91860714Y-125029285D01*
X92051190Y-125029285D02*
X91955952Y-125065000D01*
X91908333Y-125100714D01*
X91860714Y-125172142D01*
X91860714Y-125243571D01*
X98361428Y-123960000D02*
X98432857Y-123912380D01*
X98540000Y-123912380D01*
X98647142Y-123960000D01*
X98718571Y-124055238D01*
X98754285Y-124150476D01*
X98790000Y-124340952D01*
X98790000Y-124483809D01*
X98754285Y-124674285D01*
X98718571Y-124769523D01*
X98647142Y-124864761D01*
X98540000Y-124912380D01*
X98468571Y-124912380D01*
X98361428Y-124864761D01*
X98325714Y-124817142D01*
X98325714Y-124483809D01*
X98468571Y-124483809D01*
X98004285Y-124912380D02*
X98004285Y-123912380D01*
X97575714Y-124912380D01*
X97575714Y-123912380D01*
X97218571Y-124912380D02*
X97218571Y-123912380D01*
X97040000Y-123912380D01*
X96932857Y-123960000D01*
X96861428Y-124055238D01*
X96825714Y-124150476D01*
X96790000Y-124340952D01*
X96790000Y-124483809D01*
X96825714Y-124674285D01*
X96861428Y-124769523D01*
X96932857Y-124864761D01*
X97040000Y-124912380D01*
X97218571Y-124912380D01*
X103262857Y-124912380D02*
X103262857Y-123912380D01*
X102905714Y-124912380D02*
X102905714Y-123912380D01*
X102477142Y-124912380D01*
X102477142Y-123912380D01*
X123761428Y-123960000D02*
X123832857Y-123912380D01*
X123940000Y-123912380D01*
X124047142Y-123960000D01*
X124118571Y-124055238D01*
X124154285Y-124150476D01*
X124190000Y-124340952D01*
X124190000Y-124483809D01*
X124154285Y-124674285D01*
X124118571Y-124769523D01*
X124047142Y-124864761D01*
X123940000Y-124912380D01*
X123868571Y-124912380D01*
X123761428Y-124864761D01*
X123725714Y-124817142D01*
X123725714Y-124483809D01*
X123868571Y-124483809D01*
X123404285Y-124912380D02*
X123404285Y-123912380D01*
X122975714Y-124912380D01*
X122975714Y-123912380D01*
X122618571Y-124912380D02*
X122618571Y-123912380D01*
X122440000Y-123912380D01*
X122332857Y-123960000D01*
X122261428Y-124055238D01*
X122225714Y-124150476D01*
X122190000Y-124340952D01*
X122190000Y-124483809D01*
X122225714Y-124674285D01*
X122261428Y-124769523D01*
X122332857Y-124864761D01*
X122440000Y-124912380D01*
X122618571Y-124912380D01*
X129020000Y-123912380D02*
X128877142Y-123912380D01*
X128805714Y-123960000D01*
X128734285Y-124055238D01*
X128698571Y-124245714D01*
X128698571Y-124579047D01*
X128734285Y-124769523D01*
X128805714Y-124864761D01*
X128877142Y-124912380D01*
X129020000Y-124912380D01*
X129091428Y-124864761D01*
X129162857Y-124769523D01*
X129198571Y-124579047D01*
X129198571Y-124245714D01*
X129162857Y-124055238D01*
X129091428Y-123960000D01*
X129020000Y-123912380D01*
X128377142Y-123912380D02*
X128377142Y-124721904D01*
X128341428Y-124817142D01*
X128305714Y-124864761D01*
X128234285Y-124912380D01*
X128091428Y-124912380D01*
X128020000Y-124864761D01*
X127984285Y-124817142D01*
X127948571Y-124721904D01*
X127948571Y-123912380D01*
X127698571Y-123912380D02*
X127270000Y-123912380D01*
X127484285Y-124912380D02*
X127484285Y-123912380D01*
X107783380Y-121707857D02*
X107783380Y-121850714D01*
X107831000Y-121922142D01*
X107926238Y-121993571D01*
X108116714Y-122029285D01*
X108450047Y-122029285D01*
X108640523Y-121993571D01*
X108735761Y-121922142D01*
X108783380Y-121850714D01*
X108783380Y-121707857D01*
X108735761Y-121636428D01*
X108640523Y-121565000D01*
X108450047Y-121529285D01*
X108116714Y-121529285D01*
X107926238Y-121565000D01*
X107831000Y-121636428D01*
X107783380Y-121707857D01*
X107783380Y-122243571D02*
X108783380Y-122493571D01*
X107783380Y-122743571D01*
X108878619Y-122815000D02*
X108878619Y-123386428D01*
X108259571Y-123565000D02*
X108259571Y-123815000D01*
X108783380Y-123922142D02*
X108783380Y-123565000D01*
X107783380Y-123565000D01*
X107783380Y-123922142D01*
X108783380Y-124243571D02*
X108116714Y-124243571D01*
X108307190Y-124243571D02*
X108211952Y-124279285D01*
X108164333Y-124315000D01*
X108116714Y-124386428D01*
X108116714Y-124457857D01*
X108783380Y-124707857D02*
X108116714Y-124707857D01*
X108307190Y-124707857D02*
X108211952Y-124743571D01*
X108164333Y-124779285D01*
X108116714Y-124850714D01*
X108116714Y-124922142D01*
D10*
X186690000Y-128270000D02*
G75*
G02*
X186055000Y-128905000I-635000J0D01*
G01*
X141605000Y-128905000D02*
G75*
G02*
X140970000Y-128270000I0J635000D01*
G01*
X186690000Y-116840000D02*
X186690000Y-128270000D01*
X140970000Y-116840000D02*
X140970000Y-128270000D01*
X185420000Y-115570000D02*
X142240000Y-115570000D01*
X140970000Y-116840000D02*
G75*
G02*
X142240000Y-115570000I1270000J0D01*
G01*
X185420000Y-115570000D02*
G75*
G02*
X186690000Y-116840000I0J-1270000D01*
G01*
D11*
X144597380Y-121672142D02*
X144121190Y-121422142D01*
X144597380Y-121243571D02*
X143597380Y-121243571D01*
X143597380Y-121529285D01*
X143645000Y-121600714D01*
X143692619Y-121636428D01*
X143787857Y-121672142D01*
X143930714Y-121672142D01*
X144025952Y-121636428D01*
X144073571Y-121600714D01*
X144121190Y-121529285D01*
X144121190Y-121243571D01*
X144549761Y-122279285D02*
X144597380Y-122207857D01*
X144597380Y-122065000D01*
X144549761Y-121993571D01*
X144454523Y-121957857D01*
X144073571Y-121957857D01*
X143978333Y-121993571D01*
X143930714Y-122065000D01*
X143930714Y-122207857D01*
X143978333Y-122279285D01*
X144073571Y-122315000D01*
X144168809Y-122315000D01*
X144264047Y-121957857D01*
X143930714Y-122957857D02*
X144740238Y-122957857D01*
X144835476Y-122922142D01*
X144883095Y-122886428D01*
X144930714Y-122815000D01*
X144930714Y-122707857D01*
X144883095Y-122636428D01*
X144549761Y-122957857D02*
X144597380Y-122886428D01*
X144597380Y-122743571D01*
X144549761Y-122672142D01*
X144502142Y-122636428D01*
X144406904Y-122600714D01*
X144121190Y-122600714D01*
X144025952Y-122636428D01*
X143978333Y-122672142D01*
X143930714Y-122743571D01*
X143930714Y-122886428D01*
X143978333Y-122957857D01*
X144692619Y-123136428D02*
X144692619Y-123707857D01*
X144073571Y-123886428D02*
X144073571Y-124136428D01*
X144597380Y-124243571D02*
X144597380Y-123886428D01*
X143597380Y-123886428D01*
X143597380Y-124243571D01*
X144597380Y-124565000D02*
X143930714Y-124565000D01*
X144121190Y-124565000D02*
X144025952Y-124600714D01*
X143978333Y-124636428D01*
X143930714Y-124707857D01*
X143930714Y-124779285D01*
X144597380Y-125029285D02*
X143930714Y-125029285D01*
X144121190Y-125029285D02*
X144025952Y-125065000D01*
X143978333Y-125100714D01*
X143930714Y-125172142D01*
X143930714Y-125243571D01*
X150431428Y-123960000D02*
X150502857Y-123912380D01*
X150610000Y-123912380D01*
X150717142Y-123960000D01*
X150788571Y-124055238D01*
X150824285Y-124150476D01*
X150860000Y-124340952D01*
X150860000Y-124483809D01*
X150824285Y-124674285D01*
X150788571Y-124769523D01*
X150717142Y-124864761D01*
X150610000Y-124912380D01*
X150538571Y-124912380D01*
X150431428Y-124864761D01*
X150395714Y-124817142D01*
X150395714Y-124483809D01*
X150538571Y-124483809D01*
X150074285Y-124912380D02*
X150074285Y-123912380D01*
X149645714Y-124912380D01*
X149645714Y-123912380D01*
X149288571Y-124912380D02*
X149288571Y-123912380D01*
X149110000Y-123912380D01*
X149002857Y-123960000D01*
X148931428Y-124055238D01*
X148895714Y-124150476D01*
X148860000Y-124340952D01*
X148860000Y-124483809D01*
X148895714Y-124674285D01*
X148931428Y-124769523D01*
X149002857Y-124864761D01*
X149110000Y-124912380D01*
X149288571Y-124912380D01*
X155332857Y-124912380D02*
X155332857Y-123912380D01*
X154975714Y-124912380D02*
X154975714Y-123912380D01*
X154547142Y-124912380D01*
X154547142Y-123912380D01*
X175831428Y-123960000D02*
X175902857Y-123912380D01*
X176010000Y-123912380D01*
X176117142Y-123960000D01*
X176188571Y-124055238D01*
X176224285Y-124150476D01*
X176260000Y-124340952D01*
X176260000Y-124483809D01*
X176224285Y-124674285D01*
X176188571Y-124769523D01*
X176117142Y-124864761D01*
X176010000Y-124912380D01*
X175938571Y-124912380D01*
X175831428Y-124864761D01*
X175795714Y-124817142D01*
X175795714Y-124483809D01*
X175938571Y-124483809D01*
X175474285Y-124912380D02*
X175474285Y-123912380D01*
X175045714Y-124912380D01*
X175045714Y-123912380D01*
X174688571Y-124912380D02*
X174688571Y-123912380D01*
X174510000Y-123912380D01*
X174402857Y-123960000D01*
X174331428Y-124055238D01*
X174295714Y-124150476D01*
X174260000Y-124340952D01*
X174260000Y-124483809D01*
X174295714Y-124674285D01*
X174331428Y-124769523D01*
X174402857Y-124864761D01*
X174510000Y-124912380D01*
X174688571Y-124912380D01*
X181090000Y-123912380D02*
X180947142Y-123912380D01*
X180875714Y-123960000D01*
X180804285Y-124055238D01*
X180768571Y-124245714D01*
X180768571Y-124579047D01*
X180804285Y-124769523D01*
X180875714Y-124864761D01*
X180947142Y-124912380D01*
X181090000Y-124912380D01*
X181161428Y-124864761D01*
X181232857Y-124769523D01*
X181268571Y-124579047D01*
X181268571Y-124245714D01*
X181232857Y-124055238D01*
X181161428Y-123960000D01*
X181090000Y-123912380D01*
X180447142Y-123912380D02*
X180447142Y-124721904D01*
X180411428Y-124817142D01*
X180375714Y-124864761D01*
X180304285Y-124912380D01*
X180161428Y-124912380D01*
X180090000Y-124864761D01*
X180054285Y-124817142D01*
X180018571Y-124721904D01*
X180018571Y-123912380D01*
X179768571Y-123912380D02*
X179340000Y-123912380D01*
X179554285Y-124912380D02*
X179554285Y-123912380D01*
X159853380Y-121707857D02*
X159853380Y-121850714D01*
X159901000Y-121922142D01*
X159996238Y-121993571D01*
X160186714Y-122029285D01*
X160520047Y-122029285D01*
X160710523Y-121993571D01*
X160805761Y-121922142D01*
X160853380Y-121850714D01*
X160853380Y-121707857D01*
X160805761Y-121636428D01*
X160710523Y-121565000D01*
X160520047Y-121529285D01*
X160186714Y-121529285D01*
X159996238Y-121565000D01*
X159901000Y-121636428D01*
X159853380Y-121707857D01*
X159853380Y-122243571D02*
X160853380Y-122493571D01*
X159853380Y-122743571D01*
X160948619Y-122815000D02*
X160948619Y-123386428D01*
X160329571Y-123565000D02*
X160329571Y-123815000D01*
X160853380Y-123922142D02*
X160853380Y-123565000D01*
X159853380Y-123565000D01*
X159853380Y-123922142D01*
X160853380Y-124243571D02*
X160186714Y-124243571D01*
X160377190Y-124243571D02*
X160281952Y-124279285D01*
X160234333Y-124315000D01*
X160186714Y-124386428D01*
X160186714Y-124457857D01*
X160853380Y-124707857D02*
X160186714Y-124707857D01*
X160377190Y-124707857D02*
X160281952Y-124743571D01*
X160234333Y-124779285D01*
X160186714Y-124850714D01*
X160186714Y-124922142D01*
D10*
%TO.C,R6*%
X93626001Y-124756936D02*
X93626001Y-125211064D01*
X95096001Y-124756936D02*
X95096001Y-125211064D01*
%TO.C,D2*%
X95321000Y-120149000D02*
X95321000Y-123009000D01*
X95321000Y-123009000D02*
X93401000Y-123009000D01*
X93401000Y-123009000D02*
X93401000Y-120149000D01*
%TO.C,POWER_OUT1*%
X126690000Y-127380000D02*
X126690000Y-119380000D01*
X124690000Y-119380000D02*
X124690000Y-127380000D01*
X121690000Y-127380000D02*
X121690000Y-119380000D01*
X129690000Y-119380000D02*
X129690000Y-127380000D01*
%TO.C,POWER_IN1*%
X101370000Y-127380000D02*
X101370000Y-119380000D01*
X99370000Y-119380000D02*
X99370000Y-127380000D01*
X96370000Y-127380000D02*
X96370000Y-119380000D01*
X104370000Y-119380000D02*
X104370000Y-127380000D01*
%TO.C,RV1*%
X113554000Y-118623000D02*
X113054000Y-118623000D01*
X113054000Y-118623000D02*
X113054000Y-121523000D01*
X116054000Y-118623000D02*
X116054000Y-121523000D01*
X116054000Y-118623000D02*
X115554000Y-118623000D01*
X116354000Y-118723000D02*
X116354000Y-123123000D01*
X116354000Y-123123000D02*
X115954000Y-123123000D01*
%TO.C,HS1*%
X134760000Y-69075000D02*
X134760000Y-115075000D01*
X134760000Y-69075000D02*
X88760000Y-69075000D01*
X88760000Y-115075000D02*
X134760000Y-115075000D01*
X88760000Y-69075000D02*
X88760000Y-115075000D01*
%TO.C,R7*%
X106843500Y-125010936D02*
X106843500Y-125465064D01*
X105373500Y-125010936D02*
X105373500Y-125465064D01*
%TO.C,D1*%
X105148500Y-123192500D02*
X105148500Y-120332500D01*
X107068500Y-123192500D02*
X105148500Y-123192500D01*
X107068500Y-120332500D02*
X107068500Y-123192500D01*
%TO.C,R6*%
X147166001Y-124756936D02*
X147166001Y-125211064D01*
X145696001Y-124756936D02*
X145696001Y-125211064D01*
%TO.C,D2*%
X145471000Y-123009000D02*
X145471000Y-120149000D01*
X147391000Y-123009000D02*
X145471000Y-123009000D01*
X147391000Y-120149000D02*
X147391000Y-123009000D01*
%TO.C,POWER_OUT1*%
X181760000Y-119380000D02*
X181760000Y-127380000D01*
X173760000Y-127380000D02*
X173760000Y-119380000D01*
X176760000Y-119380000D02*
X176760000Y-127380000D01*
X178760000Y-127380000D02*
X178760000Y-119380000D01*
%TO.C,POWER_IN1*%
X156440000Y-119380000D02*
X156440000Y-127380000D01*
X148440000Y-127380000D02*
X148440000Y-119380000D01*
X151440000Y-119380000D02*
X151440000Y-127380000D01*
X153440000Y-127380000D02*
X153440000Y-119380000D01*
%TO.C,RV1*%
X168424000Y-123123000D02*
X168024000Y-123123000D01*
X168424000Y-118723000D02*
X168424000Y-123123000D01*
X168124000Y-118623000D02*
X167624000Y-118623000D01*
X168124000Y-118623000D02*
X168124000Y-121523000D01*
X165124000Y-118623000D02*
X165124000Y-121523000D01*
X165624000Y-118623000D02*
X165124000Y-118623000D01*
%TO.C,HS1*%
X140830000Y-69075000D02*
X140830000Y-115075000D01*
X140830000Y-115075000D02*
X186830000Y-115075000D01*
X186830000Y-69075000D02*
X140830000Y-69075000D01*
X186830000Y-69075000D02*
X186830000Y-115075000D01*
%TO.C,R7*%
X157443500Y-125010936D02*
X157443500Y-125465064D01*
X158913500Y-125010936D02*
X158913500Y-125465064D01*
%TO.C,D1*%
X159138500Y-120332500D02*
X159138500Y-123192500D01*
X159138500Y-123192500D02*
X157218500Y-123192500D01*
X157218500Y-123192500D02*
X157218500Y-120332500D01*
%TO.C,R6*%
D11*
X94527667Y-128087380D02*
X94861001Y-127611190D01*
X95099096Y-128087380D02*
X95099096Y-127087380D01*
X94718143Y-127087380D01*
X94622905Y-127135000D01*
X94575286Y-127182619D01*
X94527667Y-127277857D01*
X94527667Y-127420714D01*
X94575286Y-127515952D01*
X94622905Y-127563571D01*
X94718143Y-127611190D01*
X95099096Y-127611190D01*
X93670524Y-127087380D02*
X93861001Y-127087380D01*
X93956239Y-127135000D01*
X94003858Y-127182619D01*
X94099096Y-127325476D01*
X94146715Y-127515952D01*
X94146715Y-127896904D01*
X94099096Y-127992142D01*
X94051477Y-128039761D01*
X93956239Y-128087380D01*
X93765762Y-128087380D01*
X93670524Y-128039761D01*
X93622905Y-127992142D01*
X93575286Y-127896904D01*
X93575286Y-127658809D01*
X93622905Y-127563571D01*
X93670524Y-127515952D01*
X93765762Y-127468333D01*
X93956239Y-127468333D01*
X94051477Y-127515952D01*
X94099096Y-127563571D01*
X94146715Y-127658809D01*
%TO.C,D2*%
X95099095Y-118943380D02*
X95099095Y-117943380D01*
X94861000Y-117943380D01*
X94718142Y-117991000D01*
X94622904Y-118086238D01*
X94575285Y-118181476D01*
X94527666Y-118371952D01*
X94527666Y-118514809D01*
X94575285Y-118705285D01*
X94622904Y-118800523D01*
X94718142Y-118895761D01*
X94861000Y-118943380D01*
X95099095Y-118943380D01*
X94146714Y-118038619D02*
X94099095Y-117991000D01*
X94003857Y-117943380D01*
X93765761Y-117943380D01*
X93670523Y-117991000D01*
X93622904Y-118038619D01*
X93575285Y-118133857D01*
X93575285Y-118229095D01*
X93622904Y-118371952D01*
X94194333Y-118943380D01*
X93575285Y-118943380D01*
%TO.C,POWER_OUT1*%
X130245238Y-117292380D02*
X130245238Y-116292380D01*
X129864285Y-116292380D01*
X129769047Y-116340000D01*
X129721428Y-116387619D01*
X129673809Y-116482857D01*
X129673809Y-116625714D01*
X129721428Y-116720952D01*
X129769047Y-116768571D01*
X129864285Y-116816190D01*
X130245238Y-116816190D01*
X129054761Y-116292380D02*
X128864285Y-116292380D01*
X128769047Y-116340000D01*
X128673809Y-116435238D01*
X128626190Y-116625714D01*
X128626190Y-116959047D01*
X128673809Y-117149523D01*
X128769047Y-117244761D01*
X128864285Y-117292380D01*
X129054761Y-117292380D01*
X129150000Y-117244761D01*
X129245238Y-117149523D01*
X129292857Y-116959047D01*
X129292857Y-116625714D01*
X129245238Y-116435238D01*
X129150000Y-116340000D01*
X129054761Y-116292380D01*
X128292857Y-116292380D02*
X128054761Y-117292380D01*
X127864285Y-116578095D01*
X127673809Y-117292380D01*
X127435714Y-116292380D01*
X127054761Y-116768571D02*
X126721428Y-116768571D01*
X126578571Y-117292380D02*
X127054761Y-117292380D01*
X127054761Y-116292380D01*
X126578571Y-116292380D01*
X125578571Y-117292380D02*
X125911904Y-116816190D01*
X126150000Y-117292380D02*
X126150000Y-116292380D01*
X125769047Y-116292380D01*
X125673809Y-116340000D01*
X125626190Y-116387619D01*
X125578571Y-116482857D01*
X125578571Y-116625714D01*
X125626190Y-116720952D01*
X125673809Y-116768571D01*
X125769047Y-116816190D01*
X126150000Y-116816190D01*
X125388095Y-117387619D02*
X124626190Y-117387619D01*
X124197619Y-116292380D02*
X124007142Y-116292380D01*
X123911904Y-116340000D01*
X123816666Y-116435238D01*
X123769047Y-116625714D01*
X123769047Y-116959047D01*
X123816666Y-117149523D01*
X123911904Y-117244761D01*
X124007142Y-117292380D01*
X124197619Y-117292380D01*
X124292857Y-117244761D01*
X124388095Y-117149523D01*
X124435714Y-116959047D01*
X124435714Y-116625714D01*
X124388095Y-116435238D01*
X124292857Y-116340000D01*
X124197619Y-116292380D01*
X123340476Y-116292380D02*
X123340476Y-117101904D01*
X123292857Y-117197142D01*
X123245238Y-117244761D01*
X123150000Y-117292380D01*
X122959523Y-117292380D01*
X122864285Y-117244761D01*
X122816666Y-117197142D01*
X122769047Y-117101904D01*
X122769047Y-116292380D01*
X122435714Y-116292380D02*
X121864285Y-116292380D01*
X122150000Y-117292380D02*
X122150000Y-116292380D01*
X121007142Y-117292380D02*
X121578571Y-117292380D01*
X121292857Y-117292380D02*
X121292857Y-116292380D01*
X121388095Y-116435238D01*
X121483333Y-116530476D01*
X121578571Y-116578095D01*
%TO.C,POWER_IN1*%
X104298571Y-117292380D02*
X104298571Y-116292380D01*
X103917619Y-116292380D01*
X103822380Y-116340000D01*
X103774761Y-116387619D01*
X103727142Y-116482857D01*
X103727142Y-116625714D01*
X103774761Y-116720952D01*
X103822380Y-116768571D01*
X103917619Y-116816190D01*
X104298571Y-116816190D01*
X103108095Y-116292380D02*
X102917619Y-116292380D01*
X102822380Y-116340000D01*
X102727142Y-116435238D01*
X102679523Y-116625714D01*
X102679523Y-116959047D01*
X102727142Y-117149523D01*
X102822380Y-117244761D01*
X102917619Y-117292380D01*
X103108095Y-117292380D01*
X103203333Y-117244761D01*
X103298571Y-117149523D01*
X103346190Y-116959047D01*
X103346190Y-116625714D01*
X103298571Y-116435238D01*
X103203333Y-116340000D01*
X103108095Y-116292380D01*
X102346190Y-116292380D02*
X102108095Y-117292380D01*
X101917619Y-116578095D01*
X101727142Y-117292380D01*
X101489047Y-116292380D01*
X101108095Y-116768571D02*
X100774761Y-116768571D01*
X100631904Y-117292380D02*
X101108095Y-117292380D01*
X101108095Y-116292380D01*
X100631904Y-116292380D01*
X99631904Y-117292380D02*
X99965238Y-116816190D01*
X100203333Y-117292380D02*
X100203333Y-116292380D01*
X99822380Y-116292380D01*
X99727142Y-116340000D01*
X99679523Y-116387619D01*
X99631904Y-116482857D01*
X99631904Y-116625714D01*
X99679523Y-116720952D01*
X99727142Y-116768571D01*
X99822380Y-116816190D01*
X100203333Y-116816190D01*
X99441428Y-117387619D02*
X98679523Y-117387619D01*
X98441428Y-117292380D02*
X98441428Y-116292380D01*
X97965238Y-117292380D02*
X97965238Y-116292380D01*
X97393809Y-117292380D01*
X97393809Y-116292380D01*
X96393809Y-117292380D02*
X96965238Y-117292380D01*
X96679523Y-117292380D02*
X96679523Y-116292380D01*
X96774761Y-116435238D01*
X96870000Y-116530476D01*
X96965238Y-116578095D01*
%TO.C,RV1*%
X115149238Y-124475380D02*
X115482571Y-123999190D01*
X115720666Y-124475380D02*
X115720666Y-123475380D01*
X115339714Y-123475380D01*
X115244476Y-123523000D01*
X115196857Y-123570619D01*
X115149238Y-123665857D01*
X115149238Y-123808714D01*
X115196857Y-123903952D01*
X115244476Y-123951571D01*
X115339714Y-123999190D01*
X115720666Y-123999190D01*
X114863523Y-123475380D02*
X114530190Y-124475380D01*
X114196857Y-123475380D01*
X113339714Y-124475380D02*
X113911142Y-124475380D01*
X113625428Y-124475380D02*
X113625428Y-123475380D01*
X113720666Y-123618238D01*
X113815904Y-123713476D01*
X113911142Y-123761095D01*
%TO.C,HS1*%
X112998095Y-92027380D02*
X112998095Y-91027380D01*
X112998095Y-91503571D02*
X112426666Y-91503571D01*
X112426666Y-92027380D02*
X112426666Y-91027380D01*
X111998095Y-91979761D02*
X111855238Y-92027380D01*
X111617142Y-92027380D01*
X111521904Y-91979761D01*
X111474285Y-91932142D01*
X111426666Y-91836904D01*
X111426666Y-91741666D01*
X111474285Y-91646428D01*
X111521904Y-91598809D01*
X111617142Y-91551190D01*
X111807619Y-91503571D01*
X111902857Y-91455952D01*
X111950476Y-91408333D01*
X111998095Y-91313095D01*
X111998095Y-91217857D01*
X111950476Y-91122619D01*
X111902857Y-91075000D01*
X111807619Y-91027380D01*
X111569523Y-91027380D01*
X111426666Y-91075000D01*
X110474285Y-92027380D02*
X111045714Y-92027380D01*
X110760000Y-92027380D02*
X110760000Y-91027380D01*
X110855238Y-91170238D01*
X110950476Y-91265476D01*
X111045714Y-91313095D01*
%TO.C,R7*%
X106560880Y-127976333D02*
X106084690Y-127643000D01*
X106560880Y-127404904D02*
X105560880Y-127404904D01*
X105560880Y-127785857D01*
X105608500Y-127881095D01*
X105656119Y-127928714D01*
X105751357Y-127976333D01*
X105894214Y-127976333D01*
X105989452Y-127928714D01*
X106037071Y-127881095D01*
X106084690Y-127785857D01*
X106084690Y-127404904D01*
X105560880Y-128309666D02*
X105560880Y-128976333D01*
X106560880Y-128547761D01*
%TO.C,D1*%
X106560880Y-117689404D02*
X105560880Y-117689404D01*
X105560880Y-117927500D01*
X105608500Y-118070357D01*
X105703738Y-118165595D01*
X105798976Y-118213214D01*
X105989452Y-118260833D01*
X106132309Y-118260833D01*
X106322785Y-118213214D01*
X106418023Y-118165595D01*
X106513261Y-118070357D01*
X106560880Y-117927500D01*
X106560880Y-117689404D01*
X106560880Y-119213214D02*
X106560880Y-118641785D01*
X106560880Y-118927500D02*
X105560880Y-118927500D01*
X105703738Y-118832261D01*
X105798976Y-118737023D01*
X105846595Y-118641785D01*
%TO.C,R6*%
X146597667Y-128087380D02*
X146931001Y-127611190D01*
X147169096Y-128087380D02*
X147169096Y-127087380D01*
X146788143Y-127087380D01*
X146692905Y-127135000D01*
X146645286Y-127182619D01*
X146597667Y-127277857D01*
X146597667Y-127420714D01*
X146645286Y-127515952D01*
X146692905Y-127563571D01*
X146788143Y-127611190D01*
X147169096Y-127611190D01*
X145740524Y-127087380D02*
X145931001Y-127087380D01*
X146026239Y-127135000D01*
X146073858Y-127182619D01*
X146169096Y-127325476D01*
X146216715Y-127515952D01*
X146216715Y-127896904D01*
X146169096Y-127992142D01*
X146121477Y-128039761D01*
X146026239Y-128087380D01*
X145835762Y-128087380D01*
X145740524Y-128039761D01*
X145692905Y-127992142D01*
X145645286Y-127896904D01*
X145645286Y-127658809D01*
X145692905Y-127563571D01*
X145740524Y-127515952D01*
X145835762Y-127468333D01*
X146026239Y-127468333D01*
X146121477Y-127515952D01*
X146169096Y-127563571D01*
X146216715Y-127658809D01*
%TO.C,D2*%
X147169095Y-118943380D02*
X147169095Y-117943380D01*
X146931000Y-117943380D01*
X146788142Y-117991000D01*
X146692904Y-118086238D01*
X146645285Y-118181476D01*
X146597666Y-118371952D01*
X146597666Y-118514809D01*
X146645285Y-118705285D01*
X146692904Y-118800523D01*
X146788142Y-118895761D01*
X146931000Y-118943380D01*
X147169095Y-118943380D01*
X146216714Y-118038619D02*
X146169095Y-117991000D01*
X146073857Y-117943380D01*
X145835761Y-117943380D01*
X145740523Y-117991000D01*
X145692904Y-118038619D01*
X145645285Y-118133857D01*
X145645285Y-118229095D01*
X145692904Y-118371952D01*
X146264333Y-118943380D01*
X145645285Y-118943380D01*
%TO.C,POWER_OUT1*%
X182315238Y-117292380D02*
X182315238Y-116292380D01*
X181934285Y-116292380D01*
X181839047Y-116340000D01*
X181791428Y-116387619D01*
X181743809Y-116482857D01*
X181743809Y-116625714D01*
X181791428Y-116720952D01*
X181839047Y-116768571D01*
X181934285Y-116816190D01*
X182315238Y-116816190D01*
X181124761Y-116292380D02*
X180934285Y-116292380D01*
X180839047Y-116340000D01*
X180743809Y-116435238D01*
X180696190Y-116625714D01*
X180696190Y-116959047D01*
X180743809Y-117149523D01*
X180839047Y-117244761D01*
X180934285Y-117292380D01*
X181124761Y-117292380D01*
X181220000Y-117244761D01*
X181315238Y-117149523D01*
X181362857Y-116959047D01*
X181362857Y-116625714D01*
X181315238Y-116435238D01*
X181220000Y-116340000D01*
X181124761Y-116292380D01*
X180362857Y-116292380D02*
X180124761Y-117292380D01*
X179934285Y-116578095D01*
X179743809Y-117292380D01*
X179505714Y-116292380D01*
X179124761Y-116768571D02*
X178791428Y-116768571D01*
X178648571Y-117292380D02*
X179124761Y-117292380D01*
X179124761Y-116292380D01*
X178648571Y-116292380D01*
X177648571Y-117292380D02*
X177981904Y-116816190D01*
X178220000Y-117292380D02*
X178220000Y-116292380D01*
X177839047Y-116292380D01*
X177743809Y-116340000D01*
X177696190Y-116387619D01*
X177648571Y-116482857D01*
X177648571Y-116625714D01*
X177696190Y-116720952D01*
X177743809Y-116768571D01*
X177839047Y-116816190D01*
X178220000Y-116816190D01*
X177458095Y-117387619D02*
X176696190Y-117387619D01*
X176267619Y-116292380D02*
X176077142Y-116292380D01*
X175981904Y-116340000D01*
X175886666Y-116435238D01*
X175839047Y-116625714D01*
X175839047Y-116959047D01*
X175886666Y-117149523D01*
X175981904Y-117244761D01*
X176077142Y-117292380D01*
X176267619Y-117292380D01*
X176362857Y-117244761D01*
X176458095Y-117149523D01*
X176505714Y-116959047D01*
X176505714Y-116625714D01*
X176458095Y-116435238D01*
X176362857Y-116340000D01*
X176267619Y-116292380D01*
X175410476Y-116292380D02*
X175410476Y-117101904D01*
X175362857Y-117197142D01*
X175315238Y-117244761D01*
X175220000Y-117292380D01*
X175029523Y-117292380D01*
X174934285Y-117244761D01*
X174886666Y-117197142D01*
X174839047Y-117101904D01*
X174839047Y-116292380D01*
X174505714Y-116292380D02*
X173934285Y-116292380D01*
X174220000Y-117292380D02*
X174220000Y-116292380D01*
X173077142Y-117292380D02*
X173648571Y-117292380D01*
X173362857Y-117292380D02*
X173362857Y-116292380D01*
X173458095Y-116435238D01*
X173553333Y-116530476D01*
X173648571Y-116578095D01*
%TO.C,POWER_IN1*%
X156368571Y-117292380D02*
X156368571Y-116292380D01*
X155987619Y-116292380D01*
X155892380Y-116340000D01*
X155844761Y-116387619D01*
X155797142Y-116482857D01*
X155797142Y-116625714D01*
X155844761Y-116720952D01*
X155892380Y-116768571D01*
X155987619Y-116816190D01*
X156368571Y-116816190D01*
X155178095Y-116292380D02*
X154987619Y-116292380D01*
X154892380Y-116340000D01*
X154797142Y-116435238D01*
X154749523Y-116625714D01*
X154749523Y-116959047D01*
X154797142Y-117149523D01*
X154892380Y-117244761D01*
X154987619Y-117292380D01*
X155178095Y-117292380D01*
X155273333Y-117244761D01*
X155368571Y-117149523D01*
X155416190Y-116959047D01*
X155416190Y-116625714D01*
X155368571Y-116435238D01*
X155273333Y-116340000D01*
X155178095Y-116292380D01*
X154416190Y-116292380D02*
X154178095Y-117292380D01*
X153987619Y-116578095D01*
X153797142Y-117292380D01*
X153559047Y-116292380D01*
X153178095Y-116768571D02*
X152844761Y-116768571D01*
X152701904Y-117292380D02*
X153178095Y-117292380D01*
X153178095Y-116292380D01*
X152701904Y-116292380D01*
X151701904Y-117292380D02*
X152035238Y-116816190D01*
X152273333Y-117292380D02*
X152273333Y-116292380D01*
X151892380Y-116292380D01*
X151797142Y-116340000D01*
X151749523Y-116387619D01*
X151701904Y-116482857D01*
X151701904Y-116625714D01*
X151749523Y-116720952D01*
X151797142Y-116768571D01*
X151892380Y-116816190D01*
X152273333Y-116816190D01*
X151511428Y-117387619D02*
X150749523Y-117387619D01*
X150511428Y-117292380D02*
X150511428Y-116292380D01*
X150035238Y-117292380D02*
X150035238Y-116292380D01*
X149463809Y-117292380D01*
X149463809Y-116292380D01*
X148463809Y-117292380D02*
X149035238Y-117292380D01*
X148749523Y-117292380D02*
X148749523Y-116292380D01*
X148844761Y-116435238D01*
X148940000Y-116530476D01*
X149035238Y-116578095D01*
%TO.C,RV1*%
X167219238Y-124475380D02*
X167552571Y-123999190D01*
X167790666Y-124475380D02*
X167790666Y-123475380D01*
X167409714Y-123475380D01*
X167314476Y-123523000D01*
X167266857Y-123570619D01*
X167219238Y-123665857D01*
X167219238Y-123808714D01*
X167266857Y-123903952D01*
X167314476Y-123951571D01*
X167409714Y-123999190D01*
X167790666Y-123999190D01*
X166933523Y-123475380D02*
X166600190Y-124475380D01*
X166266857Y-123475380D01*
X165409714Y-124475380D02*
X165981142Y-124475380D01*
X165695428Y-124475380D02*
X165695428Y-123475380D01*
X165790666Y-123618238D01*
X165885904Y-123713476D01*
X165981142Y-123761095D01*
%TO.C,HS1*%
X165068095Y-92027380D02*
X165068095Y-91027380D01*
X165068095Y-91503571D02*
X164496666Y-91503571D01*
X164496666Y-92027380D02*
X164496666Y-91027380D01*
X164068095Y-91979761D02*
X163925238Y-92027380D01*
X163687142Y-92027380D01*
X163591904Y-91979761D01*
X163544285Y-91932142D01*
X163496666Y-91836904D01*
X163496666Y-91741666D01*
X163544285Y-91646428D01*
X163591904Y-91598809D01*
X163687142Y-91551190D01*
X163877619Y-91503571D01*
X163972857Y-91455952D01*
X164020476Y-91408333D01*
X164068095Y-91313095D01*
X164068095Y-91217857D01*
X164020476Y-91122619D01*
X163972857Y-91075000D01*
X163877619Y-91027380D01*
X163639523Y-91027380D01*
X163496666Y-91075000D01*
X162544285Y-92027380D02*
X163115714Y-92027380D01*
X162830000Y-92027380D02*
X162830000Y-91027380D01*
X162925238Y-91170238D01*
X163020476Y-91265476D01*
X163115714Y-91313095D01*
%TO.C,R7*%
X158630880Y-127976333D02*
X158154690Y-127643000D01*
X158630880Y-127404904D02*
X157630880Y-127404904D01*
X157630880Y-127785857D01*
X157678500Y-127881095D01*
X157726119Y-127928714D01*
X157821357Y-127976333D01*
X157964214Y-127976333D01*
X158059452Y-127928714D01*
X158107071Y-127881095D01*
X158154690Y-127785857D01*
X158154690Y-127404904D01*
X157630880Y-128309666D02*
X157630880Y-128976333D01*
X158630880Y-128547761D01*
%TO.C,D1*%
X158630880Y-117689404D02*
X157630880Y-117689404D01*
X157630880Y-117927500D01*
X157678500Y-118070357D01*
X157773738Y-118165595D01*
X157868976Y-118213214D01*
X158059452Y-118260833D01*
X158202309Y-118260833D01*
X158392785Y-118213214D01*
X158488023Y-118165595D01*
X158583261Y-118070357D01*
X158630880Y-117927500D01*
X158630880Y-117689404D01*
X158630880Y-119213214D02*
X158630880Y-118641785D01*
X158630880Y-118927500D02*
X157630880Y-118927500D01*
X157773738Y-118832261D01*
X157868976Y-118737023D01*
X157916595Y-118641785D01*
%TD*%
M02*
